<svg xmlns="http://www.w3.org/2000/svg" width="1280" height="744" viewBox="0 0 1280 744">
<!-- generated by scripts/gen-arch-diagrams.py, do not edit -->
<rect width="100%" height="100%" fill="white"/>
<rect x="24" y="24" width="249" height="198" fill="#F5F5F5" stroke="#9E9E9E" stroke-width="2" rx="0"/>
<text x="148" y="54" dy="0.35em" font-family="Helvetica, Arial, sans-serif" font-size="16" font-weight="bold" fill="#000" text-anchor="middle">pelikan-segcache</text>
<rect x="40" y="80" width="217" height="34" fill="#FBB4AE" stroke="#4D4D4D" stroke-width="1.5" rx="0"/>
<text x="148" y="97" dy="0.35em" font-family="Helvetica, Arial, sans-serif" font-size="14" font-weight="normal" fill="#000" text-anchor="middle">memcache</text>
<rect x="40" y="122" width="217" height="34" fill="#B3CDE3" stroke="#4D4D4D" stroke-width="1.5" rx="0"/>
<a href="https://crates.io/crates/segcache" target="_blank"><text x="148" y="139" dy="0.35em" font-family="Helvetica, Arial, sans-serif" font-size="14" font-weight="normal" fill="#000" text-anchor="middle">segcache</text><line x1="118" y1="148" x2="179" y2="148" stroke="#000" stroke-width="1"/></a>
<rect x="40" y="164" width="217" height="34" fill="#CCEBC5" stroke="#4D4D4D" stroke-width="1.5" rx="0"/>
<text x="148" y="181" dy="0.35em" font-family="Helvetica, Arial, sans-serif" font-size="14" font-weight="normal" fill="#000" text-anchor="middle">server</text>
<rect x="285" y="24" width="249" height="198" fill="#F5F5F5" stroke="#9E9E9E" stroke-width="2" rx="0"/>
<text x="410" y="54" dy="0.35em" font-family="Helvetica, Arial, sans-serif" font-size="16" font-weight="bold" fill="#000" text-anchor="middle">pelikan-rds</text>
<rect x="301" y="80" width="217" height="34" fill="#FBB4AE" stroke="#4D4D4D" stroke-width="1.5" rx="0"/>
<text x="410" y="97" dy="0.35em" font-family="Helvetica, Arial, sans-serif" font-size="14" font-weight="normal" fill="#000" text-anchor="middle">resp</text>
<rect x="301" y="122" width="217" height="34" fill="#B3CDE3" stroke="#4D4D4D" stroke-width="1.5" rx="0"/>
<a href="https://crates.io/crates/segcache" target="_blank"><text x="410" y="139" dy="0.35em" font-family="Helvetica, Arial, sans-serif" font-size="14" font-weight="normal" fill="#000" text-anchor="middle">segcache</text><line x1="379" y1="148" x2="440" y2="148" stroke="#000" stroke-width="1"/></a>
<rect x="301" y="164" width="217" height="34" fill="#CCEBC5" stroke="#4D4D4D" stroke-width="1.5" rx="0"/>
<text x="410" y="181" dy="0.35em" font-family="Helvetica, Arial, sans-serif" font-size="14" font-weight="normal" fill="#000" text-anchor="middle">server</text>
<rect x="546" y="24" width="249" height="198" fill="#F5F5F5" stroke="#9E9E9E" stroke-width="2" rx="0"/>
<text x="670" y="54" dy="0.35em" font-family="Helvetica, Arial, sans-serif" font-size="16" font-weight="bold" fill="#000" text-anchor="middle">pelikan-pingserver</text>
<rect x="562" y="80" width="217" height="34" fill="#FBB4AE" stroke="#4D4D4D" stroke-width="1.5" rx="0"/>
<text x="670" y="97" dy="0.35em" font-family="Helvetica, Arial, sans-serif" font-size="14" font-weight="normal" fill="#000" text-anchor="middle">ping</text>
<rect x="562" y="122" width="217" height="34" fill="#B3CDE3" stroke="#4D4D4D" stroke-width="1.5" rx="0" stroke-dasharray="6,4"/>
<text x="670" y="139" dy="0.35em" font-family="Helvetica, Arial, sans-serif" font-size="14" font-weight="normal" fill="#000" text-anchor="middle">Noop</text>
<rect x="562" y="164" width="217" height="34" fill="#CCEBC5" stroke="#4D4D4D" stroke-width="1.5" rx="0"/>
<text x="670" y="181" dy="0.35em" font-family="Helvetica, Arial, sans-serif" font-size="14" font-weight="normal" fill="#000" text-anchor="middle">server</text>
<rect x="807" y="24" width="249" height="198" fill="#F5F5F5" stroke="#9E9E9E" stroke-width="2" rx="0"/>
<text x="932" y="54" dy="0.35em" font-family="Helvetica, Arial, sans-serif" font-size="16" font-weight="bold" fill="#000" text-anchor="middle">pingproxy</text>
<rect x="823" y="80" width="217" height="34" fill="#FBB4AE" stroke="#4D4D4D" stroke-width="1.5" rx="0"/>
<text x="932" y="97" dy="0.35em" font-family="Helvetica, Arial, sans-serif" font-size="14" font-weight="normal" fill="#000" text-anchor="middle">ping</text>
<rect x="823" y="122" width="217" height="34" fill="#CCEBC5" stroke="#4D4D4D" stroke-width="1.5" rx="0"/>
<text x="932" y="139" dy="0.35em" font-family="Helvetica, Arial, sans-serif" font-size="14" font-weight="normal" fill="#000" text-anchor="middle">proxy</text>
<text x="1156" y="123" dy="0.35em" font-family="Helvetica, Arial, sans-serif" font-size="20" font-weight="bold" fill="#000" text-anchor="middle">Services</text>
<rect x="24" y="248" width="1032" height="7" fill="#BDBDBD" stroke="none" stroke-width="0" rx="0"/>
<rect x="24" y="281" width="568" height="164" fill="#F5F5F5" stroke="#9E9E9E" stroke-width="2" rx="0"/>
<text x="308" y="311" dy="0.35em" font-family="Helvetica, Arial, sans-serif" font-size="16" font-weight="bold" fill="#000" text-anchor="middle">Protocols</text>
<rect x="40" y="337" width="98" height="40" fill="#FBB4AE" stroke="#4D4D4D" stroke-width="1.5" rx="0"/>
<text x="89" y="357" dy="0.35em" font-family="Helvetica, Arial, sans-serif" font-size="14" font-weight="normal" fill="#000" text-anchor="middle">memcache</text>
<rect x="150" y="337" width="98" height="40" fill="#FBB4AE" stroke="#4D4D4D" stroke-width="1.5" rx="0"/>
<text x="198" y="357" dy="0.35em" font-family="Helvetica, Arial, sans-serif" font-size="14" font-weight="normal" fill="#000" text-anchor="middle">resp</text>
<rect x="259" y="337" width="98" height="40" fill="#FBB4AE" stroke="#4D4D4D" stroke-width="1.5" rx="0"/>
<text x="308" y="357" dy="0.35em" font-family="Helvetica, Arial, sans-serif" font-size="14" font-weight="normal" fill="#000" text-anchor="middle">ping</text>
<rect x="369" y="337" width="98" height="40" fill="#FBB4AE" stroke="#4D4D4D" stroke-width="1.5" rx="0"/>
<text x="417" y="357" dy="0.35em" font-family="Helvetica, Arial, sans-serif" font-size="14" font-weight="normal" fill="#000" text-anchor="middle">http</text>
<rect x="478" y="337" width="98" height="40" fill="#FBB4AE" stroke="#4D4D4D" stroke-width="1.5" rx="0"/>
<text x="527" y="357" dy="0.35em" font-family="Helvetica, Arial, sans-serif" font-size="14" font-weight="normal" fill="#000" text-anchor="middle">admin</text>
<rect x="40" y="389" width="536" height="40" fill="#FBB4AE" stroke="#4D4D4D" stroke-width="1.5" rx="0" fill-opacity="0.28"/>
<text x="308" y="409" dy="0.35em" font-family="Helvetica, Arial, sans-serif" font-size="14" font-weight="normal" fill="#000" text-anchor="middle">common</text>
<rect x="604" y="281" width="452" height="164" fill="#F5F5F5" stroke="#9E9E9E" stroke-width="2" rx="0"/>
<text x="830" y="311" dy="0.35em" font-family="Helvetica, Arial, sans-serif" font-size="16" font-weight="bold" fill="#000" text-anchor="middle">Storage</text>
<rect x="620" y="337" width="132" height="40" fill="#B3CDE3" stroke="#4D4D4D" stroke-width="1.5" rx="0"/>
<text x="686" y="357" dy="0.35em" font-family="Helvetica, Arial, sans-serif" font-size="14" font-weight="normal" fill="#000" text-anchor="middle">entrystore</text>
<rect x="764" y="337" width="132" height="40" fill="#B3CDE3" stroke="#4D4D4D" stroke-width="1.5" rx="0"/>
<text x="830" y="357" dy="0.35em" font-family="Helvetica, Arial, sans-serif" font-size="14" font-weight="normal" fill="#000" text-anchor="middle">bloom</text>
<rect x="908" y="337" width="132" height="40" fill="#B3CDE3" stroke="#4D4D4D" stroke-width="1.5" rx="0"/>
<text x="974" y="357" dy="0.35em" font-family="Helvetica, Arial, sans-serif" font-size="14" font-weight="normal" fill="#000" text-anchor="middle">storage-types</text>
<rect x="620" y="389" width="420" height="40" fill="#B3CDE3" stroke="#4D4D4D" stroke-width="1.5" rx="0" fill-opacity="0.28"/>
<a href="https://crates.io/crates/segcache" target="_blank"><text x="830" y="409" dy="0.35em" font-family="Helvetica, Arial, sans-serif" font-size="14" font-weight="normal" fill="#000" text-anchor="middle">segcache</text><line x1="800" y1="418" x2="860" y2="418" stroke="#000" stroke-width="1"/></a>
<text x="1156" y="363" dy="0.35em" font-family="Helvetica, Arial, sans-serif" font-size="20" font-weight="bold" fill="#000" text-anchor="middle">Cache libraries</text>
<rect x="24" y="471" width="1032" height="7" fill="#BDBDBD" stroke="none" stroke-width="0" rx="0"/>
<rect x="24" y="504" width="516" height="216" fill="#F5F5F5" stroke="#9E9E9E" stroke-width="2" rx="0"/>
<text x="282" y="534" dy="0.35em" font-family="Helvetica, Arial, sans-serif" font-size="16" font-weight="bold" fill="#000" text-anchor="middle">Server / proxy core</text>
<rect x="40" y="560" width="236" height="40" fill="#CCEBC5" stroke="#4D4D4D" stroke-width="1.5" rx="0"/>
<text x="158" y="580" dy="0.35em" font-family="Helvetica, Arial, sans-serif" font-size="14" font-weight="normal" fill="#000" text-anchor="middle">proxy</text>
<rect x="288" y="560" width="236" height="40" fill="#CCEBC5" stroke="#4D4D4D" stroke-width="1.5" rx="0"/>
<text x="406" y="580" dy="0.35em" font-family="Helvetica, Arial, sans-serif" font-size="14" font-weight="normal" fill="#000" text-anchor="middle">server</text>
<rect x="40" y="612" width="484" height="40" fill="#CCEBC5" stroke="#4D4D4D" stroke-width="1.5" rx="0" fill-opacity="0.64"/>
<text x="282" y="632" dy="0.35em" font-family="Helvetica, Arial, sans-serif" font-size="14" font-weight="normal" fill="#000" text-anchor="middle">admin</text>
<rect x="40" y="664" width="236" height="40" fill="#CCEBC5" stroke="#4D4D4D" stroke-width="1.5" rx="0" fill-opacity="0.28"/>
<text x="158" y="684" dy="0.35em" font-family="Helvetica, Arial, sans-serif" font-size="14" font-weight="normal" fill="#000" text-anchor="middle">queues</text>
<rect x="288" y="664" width="236" height="40" fill="#CCEBC5" stroke="#4D4D4D" stroke-width="1.5" rx="0" fill-opacity="0.28"/>
<text x="406" y="684" dy="0.35em" font-family="Helvetica, Arial, sans-serif" font-size="14" font-weight="normal" fill="#000" text-anchor="middle">session</text>
<rect x="552" y="504" width="504" height="216" fill="#F5F5F5" stroke="#9E9E9E" stroke-width="2" rx="0"/>
<text x="804" y="534" dy="0.35em" font-family="Helvetica, Arial, sans-serif" font-size="16" font-weight="bold" fill="#000" text-anchor="middle">Foundation</text>
<rect x="568" y="560" width="230" height="40" fill="#F2F2F2" stroke="#4D4D4D" stroke-width="1.5" rx="0"/>
<text x="683" y="580" dy="0.35em" font-family="Helvetica, Arial, sans-serif" font-size="14" font-weight="normal" fill="#000" text-anchor="middle">logger</text>
<rect x="810" y="560" width="230" height="40" fill="#F2F2F2" stroke="#4D4D4D" stroke-width="1.5" rx="0"/>
<text x="925" y="580" dy="0.35em" font-family="Helvetica, Arial, sans-serif" font-size="14" font-weight="normal" fill="#000" text-anchor="middle">config</text>
<rect x="568" y="612" width="230" height="40" fill="#F2F2F2" stroke="#4D4D4D" stroke-width="1.5" rx="0" fill-opacity="0.64"/>
<text x="683" y="632" dy="0.35em" font-family="Helvetica, Arial, sans-serif" font-size="14" font-weight="normal" fill="#000" text-anchor="middle">common</text>
<rect x="810" y="612" width="230" height="40" fill="#F2F2F2" stroke="#4D4D4D" stroke-width="1.5" rx="0" fill-opacity="0.64"/>
<text x="925" y="632" dy="0.35em" font-family="Helvetica, Arial, sans-serif" font-size="14" font-weight="normal" fill="#000" text-anchor="middle">pelikan-net</text>
<rect x="568" y="664" width="230" height="40" fill="#F2F2F2" stroke="#4D4D4D" stroke-width="1.5" rx="0" fill-opacity="0.28"/>
<a href="https://crates.io/crates/metriken" target="_blank"><text x="683" y="684" dy="0.35em" font-family="Helvetica, Arial, sans-serif" font-size="14" font-weight="normal" fill="#000" text-anchor="middle">metriken</text><line x1="653" y1="693" x2="713" y2="693" stroke="#000" stroke-width="1"/></a>
<rect x="810" y="664" width="230" height="40" fill="#F2F2F2" stroke="#4D4D4D" stroke-width="1.5" rx="0" fill-opacity="0.28"/>
<a href="https://crates.io/crates/rustls" target="_blank"><text x="925" y="684" dy="0.35em" font-family="Helvetica, Arial, sans-serif" font-size="14" font-weight="normal" fill="#000" text-anchor="middle">rustls</text><line x1="902" y1="693" x2="948" y2="693" stroke="#000" stroke-width="1"/></a>
<text x="1156" y="612" dy="0.35em" font-family="Helvetica, Arial, sans-serif" font-size="20" font-weight="bold" fill="#000" text-anchor="middle">Runtime libraries</text>
</svg>
