<svg xmlns="http://www.w3.org/2000/svg" width="2280" height="924" viewBox="0 0 2280 924">
<!-- generated by cargo xtask diagrams, do not edit -->
<rect width="100%" height="100%" fill="white"/>
<rect x="24" y="24" width="474" height="262" fill="#F5F5F5" stroke="#9E9E9E" stroke-width="2" rx="0"/>
<text x="261" y="68" dy="0.35em" font-family="Helvetica, Arial, sans-serif" font-size="26" font-weight="bold" fill="#000" text-anchor="middle">pelikan-segcache</text>
<rect x="48" y="100" width="426" height="46" fill="#FBB4AE" stroke="#4D4D4D" stroke-width="1.5" rx="0"/>
<text x="261" y="123" dy="0.35em" font-family="Helvetica, Arial, sans-serif" font-size="22" font-weight="normal" fill="#000" text-anchor="middle">memcache</text>
<rect x="48" y="154" width="426" height="46" fill="#B3CDE3" stroke="#4D4D4D" stroke-width="1.5" rx="0"/>
<a href="https://crates.io/crates/segcache" target="_blank"><text x="261" y="177" dy="0.35em" font-family="Helvetica, Arial, sans-serif" font-size="22" font-weight="normal" fill="#000" text-anchor="middle">segcache</text><line x1="213" y1="191" x2="309" y2="191" stroke="#000" stroke-width="1"/></a>
<rect x="48" y="208" width="426" height="46" fill="#CCEBC5" stroke="#4D4D4D" stroke-width="1.5" rx="0"/>
<text x="261" y="231" dy="0.35em" font-family="Helvetica, Arial, sans-serif" font-size="22" font-weight="normal" fill="#000" text-anchor="middle">server</text>
<rect x="510" y="24" width="474" height="262" fill="#F5F5F5" stroke="#9E9E9E" stroke-width="2" rx="0"/>
<text x="747" y="68" dy="0.35em" font-family="Helvetica, Arial, sans-serif" font-size="26" font-weight="bold" fill="#000" text-anchor="middle">pelikan-rds</text>
<rect x="534" y="100" width="426" height="46" fill="#FBB4AE" stroke="#4D4D4D" stroke-width="1.5" rx="0"/>
<text x="747" y="123" dy="0.35em" font-family="Helvetica, Arial, sans-serif" font-size="22" font-weight="normal" fill="#000" text-anchor="middle">resp</text>
<rect x="534" y="154" width="426" height="46" fill="#B3CDE3" stroke="#4D4D4D" stroke-width="1.5" rx="0"/>
<a href="https://crates.io/crates/segcache" target="_blank"><text x="747" y="177" dy="0.35em" font-family="Helvetica, Arial, sans-serif" font-size="22" font-weight="normal" fill="#000" text-anchor="middle">segcache</text><line x1="699" y1="191" x2="795" y2="191" stroke="#000" stroke-width="1"/></a>
<rect x="534" y="208" width="426" height="46" fill="#CCEBC5" stroke="#4D4D4D" stroke-width="1.5" rx="0"/>
<text x="747" y="231" dy="0.35em" font-family="Helvetica, Arial, sans-serif" font-size="22" font-weight="normal" fill="#000" text-anchor="middle">server</text>
<rect x="996" y="24" width="474" height="262" fill="#F5F5F5" stroke="#9E9E9E" stroke-width="2" rx="0"/>
<text x="1233" y="68" dy="0.35em" font-family="Helvetica, Arial, sans-serif" font-size="26" font-weight="bold" fill="#000" text-anchor="middle">pelikan-pingserver</text>
<rect x="1020" y="100" width="426" height="46" fill="#FBB4AE" stroke="#4D4D4D" stroke-width="1.5" rx="0"/>
<text x="1233" y="123" dy="0.35em" font-family="Helvetica, Arial, sans-serif" font-size="22" font-weight="normal" fill="#000" text-anchor="middle">ping</text>
<rect x="1020" y="154" width="426" height="46" fill="#B3CDE3" stroke="#4D4D4D" stroke-width="1.5" rx="0" stroke-dasharray="6,4"/>
<text x="1233" y="177" dy="0.35em" font-family="Helvetica, Arial, sans-serif" font-size="22" font-weight="normal" fill="#000" text-anchor="middle">Noop</text>
<rect x="1020" y="208" width="426" height="46" fill="#CCEBC5" stroke="#4D4D4D" stroke-width="1.5" rx="0"/>
<text x="1233" y="231" dy="0.35em" font-family="Helvetica, Arial, sans-serif" font-size="22" font-weight="normal" fill="#000" text-anchor="middle">server</text>
<rect x="1482" y="24" width="474" height="262" fill="#F5F5F5" stroke="#9E9E9E" stroke-width="2" rx="0"/>
<text x="1719" y="68" dy="0.35em" font-family="Helvetica, Arial, sans-serif" font-size="26" font-weight="bold" fill="#000" text-anchor="middle">pelikan-pingproxy</text>
<rect x="1506" y="100" width="426" height="46" fill="#FBB4AE" stroke="#4D4D4D" stroke-width="1.5" rx="0"/>
<text x="1719" y="123" dy="0.35em" font-family="Helvetica, Arial, sans-serif" font-size="22" font-weight="normal" fill="#000" text-anchor="middle">ping</text>
<rect x="1506" y="154" width="426" height="46" fill="#CCEBC5" stroke="#4D4D4D" stroke-width="1.5" rx="0"/>
<text x="1719" y="177" dy="0.35em" font-family="Helvetica, Arial, sans-serif" font-size="22" font-weight="normal" fill="#000" text-anchor="middle">proxy</text>
<text x="2106" y="155" dy="0.35em" font-family="Helvetica, Arial, sans-serif" font-size="30" font-weight="bold" fill="#000" text-anchor="middle">Services</text>
<rect x="24" y="312" width="1932" height="7" fill="#BDBDBD" stroke="none" stroke-width="0" rx="0"/>
<rect x="24" y="345" width="1063" height="216" fill="#F5F5F5" stroke="#9E9E9E" stroke-width="2" rx="0"/>
<text x="555" y="389" dy="0.35em" font-family="Helvetica, Arial, sans-serif" font-size="26" font-weight="bold" fill="#000" text-anchor="middle">Protocols</text>
<rect x="48" y="421" width="193" height="52" fill="#FBB4AE" stroke="#4D4D4D" stroke-width="1.5" rx="0"/>
<text x="145" y="447" dy="0.35em" font-family="Helvetica, Arial, sans-serif" font-size="22" font-weight="normal" fill="#000" text-anchor="middle">memcache</text>
<rect x="253" y="421" width="193" height="52" fill="#FBB4AE" stroke="#4D4D4D" stroke-width="1.5" rx="0"/>
<text x="350" y="447" dy="0.35em" font-family="Helvetica, Arial, sans-serif" font-size="22" font-weight="normal" fill="#000" text-anchor="middle">resp</text>
<rect x="459" y="421" width="193" height="52" fill="#FBB4AE" stroke="#4D4D4D" stroke-width="1.5" rx="0"/>
<text x="555" y="447" dy="0.35em" font-family="Helvetica, Arial, sans-serif" font-size="22" font-weight="normal" fill="#000" text-anchor="middle">ping</text>
<rect x="664" y="421" width="193" height="52" fill="#FBB4AE" stroke="#4D4D4D" stroke-width="1.5" rx="0"/>
<text x="761" y="447" dy="0.35em" font-family="Helvetica, Arial, sans-serif" font-size="22" font-weight="normal" fill="#000" text-anchor="middle">http</text>
<rect x="869" y="421" width="193" height="52" fill="#FBB4AE" stroke="#4D4D4D" stroke-width="1.5" rx="0"/>
<text x="966" y="447" dy="0.35em" font-family="Helvetica, Arial, sans-serif" font-size="22" font-weight="normal" fill="#000" text-anchor="middle">admin</text>
<rect x="48" y="485" width="1015" height="52" fill="#FBB4AE" stroke="#4D4D4D" stroke-width="1.5" rx="0" fill-opacity="0.28"/>
<text x="555" y="511" dy="0.35em" font-family="Helvetica, Arial, sans-serif" font-size="22" font-weight="normal" fill="#000" text-anchor="middle">common</text>
<rect x="1099" y="345" width="857" height="216" fill="#F5F5F5" stroke="#9E9E9E" stroke-width="2" rx="0"/>
<text x="1527" y="389" dy="0.35em" font-family="Helvetica, Arial, sans-serif" font-size="26" font-weight="bold" fill="#000" text-anchor="middle">Storage</text>
<rect x="1123" y="421" width="262" height="52" fill="#B3CDE3" stroke="#4D4D4D" stroke-width="1.5" rx="0"/>
<text x="1254" y="447" dy="0.35em" font-family="Helvetica, Arial, sans-serif" font-size="22" font-weight="normal" fill="#000" text-anchor="middle">entrystore</text>
<rect x="1396" y="421" width="262" height="52" fill="#B3CDE3" stroke="#4D4D4D" stroke-width="1.5" rx="0"/>
<text x="1527" y="447" dy="0.35em" font-family="Helvetica, Arial, sans-serif" font-size="22" font-weight="normal" fill="#000" text-anchor="middle">bloom</text>
<rect x="1670" y="421" width="262" height="52" fill="#B3CDE3" stroke="#4D4D4D" stroke-width="1.5" rx="0"/>
<text x="1801" y="447" dy="0.35em" font-family="Helvetica, Arial, sans-serif" font-size="22" font-weight="normal" fill="#000" text-anchor="middle">storage-types</text>
<rect x="1123" y="485" width="809" height="52" fill="#B3CDE3" stroke="#4D4D4D" stroke-width="1.5" rx="0" fill-opacity="0.28"/>
<a href="https://crates.io/crates/segcache" target="_blank"><text x="1527" y="511" dy="0.35em" font-family="Helvetica, Arial, sans-serif" font-size="22" font-weight="normal" fill="#000" text-anchor="middle">segcache</text><line x1="1480" y1="525" x2="1575" y2="525" stroke="#000" stroke-width="1"/></a>
<text x="2106" y="453" dy="0.35em" font-family="Helvetica, Arial, sans-serif" font-size="30" font-weight="bold" fill="#000" text-anchor="middle">Cache libraries</text>
<rect x="24" y="587" width="1932" height="7" fill="#BDBDBD" stroke="none" stroke-width="0" rx="0"/>
<rect x="24" y="620" width="966" height="280" fill="#F5F5F5" stroke="#9E9E9E" stroke-width="2" rx="0"/>
<text x="507" y="664" dy="0.35em" font-family="Helvetica, Arial, sans-serif" font-size="26" font-weight="bold" fill="#000" text-anchor="middle">Server / proxy core</text>
<rect x="48" y="696" width="453" height="52" fill="#CCEBC5" stroke="#4D4D4D" stroke-width="1.5" rx="0"/>
<text x="274" y="722" dy="0.35em" font-family="Helvetica, Arial, sans-serif" font-size="22" font-weight="normal" fill="#000" text-anchor="middle">proxy</text>
<rect x="513" y="696" width="453" height="52" fill="#CCEBC5" stroke="#4D4D4D" stroke-width="1.5" rx="0"/>
<text x="740" y="722" dy="0.35em" font-family="Helvetica, Arial, sans-serif" font-size="22" font-weight="normal" fill="#000" text-anchor="middle">server</text>
<rect x="48" y="760" width="918" height="52" fill="#CCEBC5" stroke="#4D4D4D" stroke-width="1.5" rx="0" fill-opacity="0.64"/>
<text x="507" y="786" dy="0.35em" font-family="Helvetica, Arial, sans-serif" font-size="22" font-weight="normal" fill="#000" text-anchor="middle">admin</text>
<rect x="48" y="824" width="453" height="52" fill="#CCEBC5" stroke="#4D4D4D" stroke-width="1.5" rx="0" fill-opacity="0.28"/>
<text x="274" y="850" dy="0.35em" font-family="Helvetica, Arial, sans-serif" font-size="22" font-weight="normal" fill="#000" text-anchor="middle">queues</text>
<rect x="513" y="824" width="453" height="52" fill="#CCEBC5" stroke="#4D4D4D" stroke-width="1.5" rx="0" fill-opacity="0.28"/>
<text x="740" y="850" dy="0.35em" font-family="Helvetica, Arial, sans-serif" font-size="22" font-weight="normal" fill="#000" text-anchor="middle">session</text>
<rect x="1002" y="620" width="954" height="280" fill="#F5F5F5" stroke="#9E9E9E" stroke-width="2" rx="0"/>
<text x="1479" y="664" dy="0.35em" font-family="Helvetica, Arial, sans-serif" font-size="26" font-weight="bold" fill="#000" text-anchor="middle">Foundation</text>
<rect x="1026" y="696" width="447" height="52" fill="#F2F2F2" stroke="#4D4D4D" stroke-width="1.5" rx="0"/>
<text x="1250" y="722" dy="0.35em" font-family="Helvetica, Arial, sans-serif" font-size="22" font-weight="normal" fill="#000" text-anchor="middle">logger</text>
<rect x="1485" y="696" width="447" height="52" fill="#F2F2F2" stroke="#4D4D4D" stroke-width="1.5" rx="0"/>
<text x="1708" y="722" dy="0.35em" font-family="Helvetica, Arial, sans-serif" font-size="22" font-weight="normal" fill="#000" text-anchor="middle">config</text>
<rect x="1026" y="760" width="447" height="52" fill="#F2F2F2" stroke="#4D4D4D" stroke-width="1.5" rx="0" fill-opacity="0.64"/>
<text x="1250" y="786" dy="0.35em" font-family="Helvetica, Arial, sans-serif" font-size="22" font-weight="normal" fill="#000" text-anchor="middle">common</text>
<rect x="1485" y="760" width="447" height="52" fill="#F2F2F2" stroke="#4D4D4D" stroke-width="1.5" rx="0" fill-opacity="0.64"/>
<text x="1708" y="786" dy="0.35em" font-family="Helvetica, Arial, sans-serif" font-size="22" font-weight="normal" fill="#000" text-anchor="middle">pelikan-net</text>
<rect x="1026" y="824" width="447" height="52" fill="#F2F2F2" stroke="#4D4D4D" stroke-width="1.5" rx="0" fill-opacity="0.28"/>
<a href="https://crates.io/crates/metriken" target="_blank"><text x="1250" y="850" dy="0.35em" font-family="Helvetica, Arial, sans-serif" font-size="22" font-weight="normal" fill="#000" text-anchor="middle">metriken</text><line x1="1202" y1="864" x2="1297" y2="864" stroke="#000" stroke-width="1"/></a>
<rect x="1485" y="824" width="447" height="52" fill="#F2F2F2" stroke="#4D4D4D" stroke-width="1.5" rx="0" fill-opacity="0.28"/>
<a href="https://crates.io/crates/rustls" target="_blank"><text x="1708" y="850" dy="0.35em" font-family="Helvetica, Arial, sans-serif" font-size="22" font-weight="normal" fill="#000" text-anchor="middle">rustls</text><line x1="1673" y1="864" x2="1744" y2="864" stroke="#000" stroke-width="1"/></a>
<text x="2106" y="760" dy="0.35em" font-family="Helvetica, Arial, sans-serif" font-size="30" font-weight="bold" fill="#000" text-anchor="middle">Runtime libraries</text>
</svg>
