<svg xmlns="http://www.w3.org/2000/svg" width="3013" height="2014" viewBox="0 0 3013 2014">
<!-- generated by cargo xtask diagrams, do not edit -->
<rect width="100%" height="100%" fill="white"/>
<defs><marker id="a" viewBox="0 0 10 10" refX="9" refY="5" markerWidth="6" markerHeight="6" orient="auto-start-reverse"><path d="M 0 0 L 10 5 L 0 10 z" fill="#4D4D4D"/></marker></defs>
<rect x="24" y="24" width="2705" height="452" fill="#FAFAFA" stroke="#9E9E9E" stroke-width="2" rx="0"/>
<text x="2859" y="193" dy="0.35em" font-family="Helvetica, Arial, sans-serif" font-size="30" font-weight="bold" fill="#000" text-anchor="middle">single worker</text>
<text x="2853" y="241" dy="0.35em" font-family="Helvetica, Arial, sans-serif" font-size="26" font-weight="normal" fill="#555" text-anchor="end">segcache</text>
<text x="2859" y="241" dy="0.35em" font-family="Helvetica, Arial, sans-serif" font-size="26" font-weight="normal" fill="#555" text-anchor="middle">:</text>
<text x="2867" y="241" dy="0.35em" font-family="Helvetica, Arial, sans-serif" font-size="26" font-weight="normal" fill="#555" text-anchor="start">memcache</text>
<text x="2853" y="275" dy="0.35em" font-family="Helvetica, Arial, sans-serif" font-size="26" font-weight="normal" fill="#555" text-anchor="end">rds</text>
<text x="2859" y="275" dy="0.35em" font-family="Helvetica, Arial, sans-serif" font-size="26" font-weight="normal" fill="#555" text-anchor="middle">:</text>
<text x="2867" y="275" dy="0.35em" font-family="Helvetica, Arial, sans-serif" font-size="26" font-weight="normal" fill="#555" text-anchor="start">resp</text>
<text x="2853" y="309" dy="0.35em" font-family="Helvetica, Arial, sans-serif" font-size="26" font-weight="normal" fill="#555" text-anchor="end">pingserver</text>
<text x="2859" y="309" dy="0.35em" font-family="Helvetica, Arial, sans-serif" font-size="26" font-weight="normal" fill="#555" text-anchor="middle">:</text>
<text x="2867" y="309" dy="0.35em" font-family="Helvetica, Arial, sans-serif" font-size="26" font-weight="normal" fill="#555" text-anchor="start">ping</text>
<line x1="36" y1="246" x2="2717" y2="246" stroke="#DDDDDD" stroke-width="1"/>
<text x="56" y="341" dy="0.35em" font-family="SFMono-Regular, Menlo, Consolas, monospace" font-size="26" font-weight="bold" fill="#000" text-anchor="start">pelikan_work</text>
<line x1="36" y1="436" x2="2717" y2="436" stroke="#DDDDDD" stroke-width="1"/>
<rect x="140" y="117" width="124" height="68" fill="#FFFFFF" stroke="#4D4D4D" stroke-width="1.5" rx="0" stroke-dasharray="6,4"/>
<text x="202" y="151" dy="0.35em" font-family="Helvetica, Arial, sans-serif" font-size="26" font-weight="normal" fill="#000" font-style="italic" text-anchor="middle">clients</text>
<rect x="300" y="265" width="190" height="152" fill="#FFFFFF" stroke="#4D4D4D" stroke-width="1.5" rx="10"/>
<circle cx="328" cy="293" r="16" fill="none" stroke="#4D4D4D" stroke-width="1.2"/>
<text x="328" y="293" dy="0.35em" font-family="Helvetica, Arial, sans-serif" font-size="22" font-weight="bold" fill="#000" text-anchor="middle">1</text>
<text x="407" y="293" dy="0.35em" font-family="Helvetica, Arial, sans-serif" font-size="26" font-weight="bold" fill="#000" text-anchor="middle">receive</text>
<rect x="320" y="327" width="150" height="36" fill="#CCEBC5" stroke="#4D4D4D" stroke-width="1" rx="0"/>
<text x="395" y="345" dy="0.35em" font-family="Helvetica, Arial, sans-serif" font-size="22" font-weight="normal" fill="#000" text-anchor="middle">session</text>
<rect x="320" y="369" width="150" height="36" fill="#FBB4AE" stroke="#4D4D4D" stroke-width="1" rx="0"/>
<text x="395" y="387" dy="0.35em" font-family="Helvetica, Arial, sans-serif" font-size="22" font-weight="normal" fill="#000" text-anchor="middle">protocol-*</text>
<rect x="730" y="265" width="190" height="152" fill="#FFFFFF" stroke="#4D4D4D" stroke-width="1.5" rx="10"/>
<circle cx="758" cy="293" r="16" fill="none" stroke="#4D4D4D" stroke-width="1.2"/>
<text x="758" y="293" dy="0.35em" font-family="Helvetica, Arial, sans-serif" font-size="22" font-weight="bold" fill="#000" text-anchor="middle">2</text>
<text x="837" y="293" dy="0.35em" font-family="Helvetica, Arial, sans-serif" font-size="26" font-weight="bold" fill="#000" text-anchor="middle">execute</text>
<rect x="750" y="327" width="150" height="36" fill="#B3CDE3" stroke="#4D4D4D" stroke-width="1" rx="0"/>
<text x="825" y="345" dy="0.35em" font-family="Helvetica, Arial, sans-serif" font-size="22" font-weight="normal" fill="#000" text-anchor="middle">entrystore</text>
<rect x="750" y="369" width="150" height="36" fill="#B3CDE3" stroke="#4D4D4D" stroke-width="1" rx="0"/>
<text x="825" y="387" dy="0.35em" font-family="Helvetica, Arial, sans-serif" font-size="22" font-weight="normal" fill="#000" text-anchor="middle">segcache</text>
<rect x="1160" y="265" width="190" height="152" fill="#FFFFFF" stroke="#4D4D4D" stroke-width="1.5" rx="10"/>
<circle cx="1188" cy="293" r="16" fill="none" stroke="#4D4D4D" stroke-width="1.2"/>
<text x="1188" y="293" dy="0.35em" font-family="Helvetica, Arial, sans-serif" font-size="22" font-weight="bold" fill="#000" text-anchor="middle">3</text>
<text x="1267" y="293" dy="0.35em" font-family="Helvetica, Arial, sans-serif" font-size="26" font-weight="bold" fill="#000" text-anchor="middle">send</text>
<rect x="1180" y="327" width="150" height="36" fill="#CCEBC5" stroke="#4D4D4D" stroke-width="1" rx="0"/>
<text x="1255" y="345" dy="0.35em" font-family="Helvetica, Arial, sans-serif" font-size="22" font-weight="normal" fill="#000" text-anchor="middle">session</text>
<rect x="1180" y="369" width="150" height="36" fill="#FBB4AE" stroke="#4D4D4D" stroke-width="1" rx="0"/>
<text x="1255" y="387" dy="0.35em" font-family="Helvetica, Arial, sans-serif" font-size="22" font-weight="normal" fill="#000" text-anchor="middle">protocol-*</text>
<rect x="1590" y="265" width="190" height="152" fill="#FFFFFF" stroke="#4D4D4D" stroke-width="1.5" rx="10"/>
<circle cx="1618" cy="314" r="16" fill="none" stroke="#4D4D4D" stroke-width="1.2"/>
<text x="1618" y="314" dy="0.35em" font-family="Helvetica, Arial, sans-serif" font-size="22" font-weight="bold" fill="#000" text-anchor="middle">4</text>
<text x="1697" y="314" dy="0.35em" font-family="Helvetica, Arial, sans-serif" font-size="26" font-weight="bold" fill="#000" text-anchor="middle">flush</text>
<rect x="1610" y="348" width="150" height="36" fill="#CCEBC5" stroke="#4D4D4D" stroke-width="1" rx="0"/>
<text x="1685" y="366" dy="0.35em" font-family="Helvetica, Arial, sans-serif" font-size="22" font-weight="normal" fill="#000" text-anchor="middle">session</text>
<path d="M 264 151 L 395 151 L 395 265" fill="none" stroke="#4D4D4D" stroke-width="2.4" marker-end="url(#a)"/>
<text x="407" y="208" dy="0.35em" font-family="Helvetica, Arial, sans-serif" font-size="22" font-weight="normal" fill="#555" text-anchor="start">request (wire)</text>
<path d="M 490 341 L 730 341" fill="none" stroke="#4D4D4D" stroke-width="1.4" marker-end="url(#a)"/>
<path d="M 920 341 L 1160 341" fill="none" stroke="#4D4D4D" stroke-width="1.4" marker-end="url(#a)"/>
<path d="M 1350 341 L 1590 341" fill="none" stroke="#4D4D4D" stroke-width="1.4" marker-end="url(#a)"/>
<text x="610" y="324" dy="0.35em" font-family="Helvetica, Arial, sans-serif" font-size="22" font-weight="normal" fill="#555" text-anchor="middle">request (object)</text>
<text x="1040" y="324" dy="0.35em" font-family="Helvetica, Arial, sans-serif" font-size="22" font-weight="normal" fill="#555" text-anchor="middle">response (object)</text>
<path d="M 1685 265 L 1685 151 L 264 151" fill="none" stroke="#4D4D4D" stroke-width="2.4" marker-end="url(#a)"/>
<text x="974" y="134" dy="0.35em" font-family="Helvetica, Arial, sans-serif" font-size="22" font-weight="normal" fill="#555" text-anchor="middle">response (wire)</text>
<rect x="24" y="496" width="2705" height="642" fill="#FAFAFA" stroke="#9E9E9E" stroke-width="2" rx="0"/>
<text x="2859" y="760" dy="0.35em" font-family="Helvetica, Arial, sans-serif" font-size="30" font-weight="bold" fill="#000" text-anchor="middle">multiple workers</text>
<text x="2853" y="808" dy="0.35em" font-family="Helvetica, Arial, sans-serif" font-size="26" font-weight="normal" fill="#555" text-anchor="end">segcache</text>
<text x="2859" y="808" dy="0.35em" font-family="Helvetica, Arial, sans-serif" font-size="26" font-weight="normal" fill="#555" text-anchor="middle">:</text>
<text x="2867" y="808" dy="0.35em" font-family="Helvetica, Arial, sans-serif" font-size="26" font-weight="normal" fill="#555" text-anchor="start">memcache</text>
<text x="2853" y="842" dy="0.35em" font-family="Helvetica, Arial, sans-serif" font-size="26" font-weight="normal" fill="#555" text-anchor="end">rds</text>
<text x="2859" y="842" dy="0.35em" font-family="Helvetica, Arial, sans-serif" font-size="26" font-weight="normal" fill="#555" text-anchor="middle">:</text>
<text x="2867" y="842" dy="0.35em" font-family="Helvetica, Arial, sans-serif" font-size="26" font-weight="normal" fill="#555" text-anchor="start">resp</text>
<text x="2853" y="876" dy="0.35em" font-family="Helvetica, Arial, sans-serif" font-size="26" font-weight="normal" fill="#555" text-anchor="end">pingserver</text>
<text x="2859" y="876" dy="0.35em" font-family="Helvetica, Arial, sans-serif" font-size="26" font-weight="normal" fill="#555" text-anchor="middle">:</text>
<text x="2867" y="876" dy="0.35em" font-family="Helvetica, Arial, sans-serif" font-size="26" font-weight="normal" fill="#555" text-anchor="start">ping</text>
<line x1="36" y1="718" x2="2717" y2="718" stroke="#DDDDDD" stroke-width="1"/>
<text x="56" y="813" dy="0.35em" font-family="SFMono-Regular, Menlo, Consolas, monospace" font-size="26" font-weight="bold" fill="#000" text-anchor="start">pelikan_work_i</text>
<line x1="36" y1="908" x2="2717" y2="908" stroke="#DDDDDD" stroke-width="1"/>
<text x="56" y="1003" dy="0.35em" font-family="SFMono-Regular, Menlo, Consolas, monospace" font-size="26" font-weight="bold" fill="#000" text-anchor="start">pelikan_storage</text>
<line x1="36" y1="1098" x2="2717" y2="1098" stroke="#DDDDDD" stroke-width="1"/>
<rect x="140" y="589" width="124" height="68" fill="#FFFFFF" stroke="#4D4D4D" stroke-width="1.5" rx="0" stroke-dasharray="6,4"/>
<text x="202" y="623" dy="0.35em" font-family="Helvetica, Arial, sans-serif" font-size="26" font-weight="normal" fill="#000" font-style="italic" text-anchor="middle">clients</text>
<rect x="300" y="737" width="190" height="152" fill="#FFFFFF" stroke="#4D4D4D" stroke-width="1.5" rx="10"/>
<circle cx="328" cy="765" r="16" fill="none" stroke="#4D4D4D" stroke-width="1.2"/>
<text x="328" y="765" dy="0.35em" font-family="Helvetica, Arial, sans-serif" font-size="22" font-weight="bold" fill="#000" text-anchor="middle">1</text>
<text x="407" y="765" dy="0.35em" font-family="Helvetica, Arial, sans-serif" font-size="26" font-weight="bold" fill="#000" text-anchor="middle">receive</text>
<rect x="320" y="799" width="150" height="36" fill="#CCEBC5" stroke="#4D4D4D" stroke-width="1" rx="0"/>
<text x="395" y="817" dy="0.35em" font-family="Helvetica, Arial, sans-serif" font-size="22" font-weight="normal" fill="#000" text-anchor="middle">session</text>
<rect x="320" y="841" width="150" height="36" fill="#FBB4AE" stroke="#4D4D4D" stroke-width="1" rx="0"/>
<text x="395" y="859" dy="0.35em" font-family="Helvetica, Arial, sans-serif" font-size="22" font-weight="normal" fill="#000" text-anchor="middle">protocol-*</text>
<rect x="730" y="927" width="190" height="152" fill="#FFFFFF" stroke="#4D4D4D" stroke-width="1.5" rx="10"/>
<circle cx="758" cy="955" r="16" fill="none" stroke="#4D4D4D" stroke-width="1.2"/>
<text x="758" y="955" dy="0.35em" font-family="Helvetica, Arial, sans-serif" font-size="22" font-weight="bold" fill="#000" text-anchor="middle">2</text>
<text x="837" y="955" dy="0.35em" font-family="Helvetica, Arial, sans-serif" font-size="26" font-weight="bold" fill="#000" text-anchor="middle">execute</text>
<rect x="750" y="989" width="150" height="36" fill="#B3CDE3" stroke="#4D4D4D" stroke-width="1" rx="0"/>
<text x="825" y="1007" dy="0.35em" font-family="Helvetica, Arial, sans-serif" font-size="22" font-weight="normal" fill="#000" text-anchor="middle">entrystore</text>
<rect x="750" y="1031" width="150" height="36" fill="#B3CDE3" stroke="#4D4D4D" stroke-width="1" rx="0"/>
<text x="825" y="1049" dy="0.35em" font-family="Helvetica, Arial, sans-serif" font-size="22" font-weight="normal" fill="#000" text-anchor="middle">segcache</text>
<rect x="1160" y="737" width="190" height="152" fill="#FFFFFF" stroke="#4D4D4D" stroke-width="1.5" rx="10"/>
<circle cx="1188" cy="765" r="16" fill="none" stroke="#4D4D4D" stroke-width="1.2"/>
<text x="1188" y="765" dy="0.35em" font-family="Helvetica, Arial, sans-serif" font-size="22" font-weight="bold" fill="#000" text-anchor="middle">3</text>
<text x="1267" y="765" dy="0.35em" font-family="Helvetica, Arial, sans-serif" font-size="26" font-weight="bold" fill="#000" text-anchor="middle">send</text>
<rect x="1180" y="799" width="150" height="36" fill="#CCEBC5" stroke="#4D4D4D" stroke-width="1" rx="0"/>
<text x="1255" y="817" dy="0.35em" font-family="Helvetica, Arial, sans-serif" font-size="22" font-weight="normal" fill="#000" text-anchor="middle">session</text>
<rect x="1180" y="841" width="150" height="36" fill="#FBB4AE" stroke="#4D4D4D" stroke-width="1" rx="0"/>
<text x="1255" y="859" dy="0.35em" font-family="Helvetica, Arial, sans-serif" font-size="22" font-weight="normal" fill="#000" text-anchor="middle">protocol-*</text>
<rect x="1590" y="737" width="190" height="152" fill="#FFFFFF" stroke="#4D4D4D" stroke-width="1.5" rx="10"/>
<circle cx="1618" cy="786" r="16" fill="none" stroke="#4D4D4D" stroke-width="1.2"/>
<text x="1618" y="786" dy="0.35em" font-family="Helvetica, Arial, sans-serif" font-size="22" font-weight="bold" fill="#000" text-anchor="middle">4</text>
<text x="1697" y="786" dy="0.35em" font-family="Helvetica, Arial, sans-serif" font-size="26" font-weight="bold" fill="#000" text-anchor="middle">flush</text>
<rect x="1610" y="820" width="150" height="36" fill="#CCEBC5" stroke="#4D4D4D" stroke-width="1" rx="0"/>
<text x="1685" y="838" dy="0.35em" font-family="Helvetica, Arial, sans-serif" font-size="22" font-weight="normal" fill="#000" text-anchor="middle">session</text>
<path d="M 264 623 L 395 623 L 395 737" fill="none" stroke="#4D4D4D" stroke-width="2.4" marker-end="url(#a)"/>
<text x="407" y="680" dy="0.35em" font-family="Helvetica, Arial, sans-serif" font-size="22" font-weight="normal" fill="#555" text-anchor="start">request (wire)</text>
<path d="M 490 813 L 610 813 L 610 1003 L 730 1003" fill="none" stroke="#4D4D4D" stroke-width="1.4" marker-end="url(#a)"/>
<rect x="600" y="870" width="20" height="15" fill="#F2F2F2" stroke="#4D4D4D" stroke-width="1" rx="0"/>
<rect x="600" y="885" width="20" height="15" fill="#F2F2F2" stroke="#4D4D4D" stroke-width="1" rx="0"/>
<rect x="600" y="900" width="20" height="15" fill="#F2F2F2" stroke="#4D4D4D" stroke-width="1" rx="0"/>
<rect x="600" y="916" width="20" height="15" fill="#F2F2F2" stroke="#4D4D4D" stroke-width="1" rx="0"/>
<rect x="600" y="931" width="20" height="15" fill="#F2F2F2" stroke="#4D4D4D" stroke-width="1" rx="0"/>
<text x="630" y="908" dy="0.35em" font-family="Helvetica, Arial, sans-serif" font-size="22" font-weight="normal" fill="#555" text-anchor="start">request (object)</text>
<path d="M 920 1003 L 1040 1003 L 1040 813 L 1160 813" fill="none" stroke="#4D4D4D" stroke-width="1.4" marker-end="url(#a)"/>
<rect x="1030" y="870" width="20" height="15" fill="#F2F2F2" stroke="#4D4D4D" stroke-width="1" rx="0"/>
<rect x="1030" y="885" width="20" height="15" fill="#F2F2F2" stroke="#4D4D4D" stroke-width="1" rx="0"/>
<rect x="1030" y="900" width="20" height="15" fill="#F2F2F2" stroke="#4D4D4D" stroke-width="1" rx="0"/>
<rect x="1030" y="916" width="20" height="15" fill="#F2F2F2" stroke="#4D4D4D" stroke-width="1" rx="0"/>
<rect x="1030" y="931" width="20" height="15" fill="#F2F2F2" stroke="#4D4D4D" stroke-width="1" rx="0"/>
<text x="1060" y="908" dy="0.35em" font-family="Helvetica, Arial, sans-serif" font-size="22" font-weight="normal" fill="#555" text-anchor="start">response (object)</text>
<path d="M 1350 813 L 1590 813" fill="none" stroke="#4D4D4D" stroke-width="1.4" marker-end="url(#a)"/>
<path d="M 1685 737 L 1685 623 L 264 623" fill="none" stroke="#4D4D4D" stroke-width="2.4" marker-end="url(#a)"/>
<text x="974" y="606" dy="0.35em" font-family="Helvetica, Arial, sans-serif" font-size="22" font-weight="normal" fill="#555" text-anchor="middle">response (wire)</text>
<rect x="24" y="1158" width="2705" height="832" fill="#FAFAFA" stroke="#9E9E9E" stroke-width="2" rx="0"/>
<text x="2859" y="1551" dy="0.35em" font-family="Helvetica, Arial, sans-serif" font-size="30" font-weight="bold" fill="#000" text-anchor="middle">proxy</text>
<text x="2853" y="1599" dy="0.35em" font-family="Helvetica, Arial, sans-serif" font-size="26" font-weight="normal" fill="#555" text-anchor="end">pingproxy</text>
<text x="2859" y="1599" dy="0.35em" font-family="Helvetica, Arial, sans-serif" font-size="26" font-weight="normal" fill="#555" text-anchor="middle">:</text>
<text x="2867" y="1599" dy="0.35em" font-family="Helvetica, Arial, sans-serif" font-size="26" font-weight="normal" fill="#555" text-anchor="start">ping</text>
<line x1="36" y1="1380" x2="2717" y2="1380" stroke="#DDDDDD" stroke-width="1"/>
<text x="56" y="1475" dy="0.35em" font-family="SFMono-Regular, Menlo, Consolas, monospace" font-size="26" font-weight="bold" fill="#000" text-anchor="start">pelikan_fe_i</text>
<line x1="36" y1="1570" x2="2717" y2="1570" stroke="#DDDDDD" stroke-width="1"/>
<text x="56" y="1665" dy="0.35em" font-family="SFMono-Regular, Menlo, Consolas, monospace" font-size="26" font-weight="bold" fill="#000" text-anchor="start">pelikan_be_i</text>
<line x1="36" y1="1760" x2="2717" y2="1760" stroke="#DDDDDD" stroke-width="1"/>
<line x1="36" y1="1950" x2="2717" y2="1950" stroke="#DDDDDD" stroke-width="1"/>
<rect x="140" y="1251" width="124" height="68" fill="#FFFFFF" stroke="#4D4D4D" stroke-width="1.5" rx="0" stroke-dasharray="6,4"/>
<text x="202" y="1285" dy="0.35em" font-family="Helvetica, Arial, sans-serif" font-size="26" font-weight="normal" fill="#000" font-style="italic" text-anchor="middle">clients</text>
<rect x="300" y="1399" width="190" height="152" fill="#FFFFFF" stroke="#4D4D4D" stroke-width="1.5" rx="10"/>
<circle cx="328" cy="1427" r="16" fill="none" stroke="#4D4D4D" stroke-width="1.2"/>
<text x="328" y="1427" dy="0.35em" font-family="Helvetica, Arial, sans-serif" font-size="22" font-weight="bold" fill="#000" text-anchor="middle">1</text>
<text x="407" y="1427" dy="0.35em" font-family="Helvetica, Arial, sans-serif" font-size="26" font-weight="bold" fill="#000" text-anchor="middle">receive</text>
<rect x="320" y="1461" width="150" height="36" fill="#CCEBC5" stroke="#4D4D4D" stroke-width="1" rx="0"/>
<text x="395" y="1479" dy="0.35em" font-family="Helvetica, Arial, sans-serif" font-size="22" font-weight="normal" fill="#000" text-anchor="middle">session</text>
<rect x="320" y="1503" width="150" height="36" fill="#FBB4AE" stroke="#4D4D4D" stroke-width="1" rx="0"/>
<text x="395" y="1521" dy="0.35em" font-family="Helvetica, Arial, sans-serif" font-size="22" font-weight="normal" fill="#000" text-anchor="middle">protocol-*</text>
<rect x="730" y="1589" width="190" height="152" fill="#FFFFFF" stroke="#4D4D4D" stroke-width="1.5" rx="10"/>
<circle cx="758" cy="1617" r="16" fill="none" stroke="#4D4D4D" stroke-width="1.2"/>
<text x="758" y="1617" dy="0.35em" font-family="Helvetica, Arial, sans-serif" font-size="22" font-weight="bold" fill="#000" text-anchor="middle">2</text>
<text x="837" y="1617" dy="0.35em" font-family="Helvetica, Arial, sans-serif" font-size="26" font-weight="bold" fill="#000" text-anchor="middle">send</text>
<rect x="750" y="1651" width="150" height="36" fill="#CCEBC5" stroke="#4D4D4D" stroke-width="1" rx="0"/>
<text x="825" y="1669" dy="0.35em" font-family="Helvetica, Arial, sans-serif" font-size="22" font-weight="normal" fill="#000" text-anchor="middle">session</text>
<rect x="750" y="1693" width="150" height="36" fill="#FBB4AE" stroke="#4D4D4D" stroke-width="1" rx="0"/>
<text x="825" y="1711" dy="0.35em" font-family="Helvetica, Arial, sans-serif" font-size="22" font-weight="normal" fill="#000" text-anchor="middle">protocol-*</text>
<rect x="1160" y="1589" width="190" height="152" fill="#FFFFFF" stroke="#4D4D4D" stroke-width="1.5" rx="10"/>
<circle cx="1188" cy="1638" r="16" fill="none" stroke="#4D4D4D" stroke-width="1.2"/>
<text x="1188" y="1638" dy="0.35em" font-family="Helvetica, Arial, sans-serif" font-size="22" font-weight="bold" fill="#000" text-anchor="middle">3</text>
<text x="1267" y="1638" dy="0.35em" font-family="Helvetica, Arial, sans-serif" font-size="26" font-weight="bold" fill="#000" text-anchor="middle">flush</text>
<rect x="1180" y="1672" width="150" height="36" fill="#CCEBC5" stroke="#4D4D4D" stroke-width="1" rx="0"/>
<text x="1255" y="1690" dy="0.35em" font-family="Helvetica, Arial, sans-serif" font-size="22" font-weight="normal" fill="#000" text-anchor="middle">session</text>
<rect x="1590" y="1589" width="190" height="152" fill="#FFFFFF" stroke="#4D4D4D" stroke-width="1.5" rx="10"/>
<circle cx="1618" cy="1617" r="16" fill="none" stroke="#4D4D4D" stroke-width="1.2"/>
<text x="1618" y="1617" dy="0.35em" font-family="Helvetica, Arial, sans-serif" font-size="22" font-weight="bold" fill="#000" text-anchor="middle">4</text>
<text x="1697" y="1617" dy="0.35em" font-family="Helvetica, Arial, sans-serif" font-size="26" font-weight="bold" fill="#000" text-anchor="middle">receive</text>
<rect x="1610" y="1651" width="150" height="36" fill="#CCEBC5" stroke="#4D4D4D" stroke-width="1" rx="0"/>
<text x="1685" y="1669" dy="0.35em" font-family="Helvetica, Arial, sans-serif" font-size="22" font-weight="normal" fill="#000" text-anchor="middle">session</text>
<rect x="1610" y="1693" width="150" height="36" fill="#FBB4AE" stroke="#4D4D4D" stroke-width="1" rx="0"/>
<text x="1685" y="1711" dy="0.35em" font-family="Helvetica, Arial, sans-serif" font-size="22" font-weight="normal" fill="#000" text-anchor="middle">protocol-*</text>
<rect x="2020" y="1399" width="190" height="152" fill="#FFFFFF" stroke="#4D4D4D" stroke-width="1.5" rx="10"/>
<circle cx="2048" cy="1427" r="16" fill="none" stroke="#4D4D4D" stroke-width="1.2"/>
<text x="2048" y="1427" dy="0.35em" font-family="Helvetica, Arial, sans-serif" font-size="22" font-weight="bold" fill="#000" text-anchor="middle">5</text>
<text x="2127" y="1427" dy="0.35em" font-family="Helvetica, Arial, sans-serif" font-size="26" font-weight="bold" fill="#000" text-anchor="middle">send</text>
<rect x="2040" y="1461" width="150" height="36" fill="#CCEBC5" stroke="#4D4D4D" stroke-width="1" rx="0"/>
<text x="2115" y="1479" dy="0.35em" font-family="Helvetica, Arial, sans-serif" font-size="22" font-weight="normal" fill="#000" text-anchor="middle">session</text>
<rect x="2040" y="1503" width="150" height="36" fill="#FBB4AE" stroke="#4D4D4D" stroke-width="1" rx="0"/>
<text x="2115" y="1521" dy="0.35em" font-family="Helvetica, Arial, sans-serif" font-size="22" font-weight="normal" fill="#000" text-anchor="middle">protocol-*</text>
<rect x="2450" y="1399" width="190" height="152" fill="#FFFFFF" stroke="#4D4D4D" stroke-width="1.5" rx="10"/>
<circle cx="2478" cy="1448" r="16" fill="none" stroke="#4D4D4D" stroke-width="1.2"/>
<text x="2478" y="1448" dy="0.35em" font-family="Helvetica, Arial, sans-serif" font-size="22" font-weight="bold" fill="#000" text-anchor="middle">6</text>
<text x="2557" y="1448" dy="0.35em" font-family="Helvetica, Arial, sans-serif" font-size="26" font-weight="bold" fill="#000" text-anchor="middle">flush</text>
<rect x="2470" y="1482" width="150" height="36" fill="#CCEBC5" stroke="#4D4D4D" stroke-width="1" rx="0"/>
<text x="2545" y="1500" dy="0.35em" font-family="Helvetica, Arial, sans-serif" font-size="22" font-weight="normal" fill="#000" text-anchor="middle">session</text>
<path d="M 264 1285 L 395 1285 L 395 1399" fill="none" stroke="#4D4D4D" stroke-width="2.4" marker-end="url(#a)"/>
<text x="407" y="1342" dy="0.35em" font-family="Helvetica, Arial, sans-serif" font-size="22" font-weight="normal" fill="#555" text-anchor="start">request (wire)</text>
<path d="M 490 1475 L 610 1475 L 610 1665 L 730 1665" fill="none" stroke="#4D4D4D" stroke-width="1.4" marker-end="url(#a)"/>
<rect x="600" y="1532" width="20" height="15" fill="#F2F2F2" stroke="#4D4D4D" stroke-width="1" rx="0"/>
<rect x="600" y="1547" width="20" height="15" fill="#F2F2F2" stroke="#4D4D4D" stroke-width="1" rx="0"/>
<rect x="600" y="1562" width="20" height="15" fill="#F2F2F2" stroke="#4D4D4D" stroke-width="1" rx="0"/>
<rect x="600" y="1578" width="20" height="15" fill="#F2F2F2" stroke="#4D4D4D" stroke-width="1" rx="0"/>
<rect x="600" y="1593" width="20" height="15" fill="#F2F2F2" stroke="#4D4D4D" stroke-width="1" rx="0"/>
<text x="630" y="1570" dy="0.35em" font-family="Helvetica, Arial, sans-serif" font-size="22" font-weight="normal" fill="#555" text-anchor="start">request (object)</text>
<path d="M 920 1665 L 1160 1665" fill="none" stroke="#4D4D4D" stroke-width="1.4" marker-end="url(#a)"/>
<rect x="1408" y="1821" width="124" height="68" fill="#FFFFFF" stroke="#4D4D4D" stroke-width="1.5" rx="0" stroke-dasharray="6,4"/>
<text x="1470" y="1855" dy="0.35em" font-family="Helvetica, Arial, sans-serif" font-size="26" font-weight="normal" fill="#000" font-style="italic" text-anchor="middle">servers</text>
<path d="M 1255 1741 L 1255 1855 L 1408 1855" fill="none" stroke="#4D4D4D" stroke-width="2.4" marker-end="url(#a)"/>
<text x="1238" y="1807" dy="0.35em" font-family="Helvetica, Arial, sans-serif" font-size="22" font-weight="normal" fill="#555" text-anchor="end">request (wire)</text>
<path d="M 1532 1855 L 1685 1855 L 1685 1741" fill="none" stroke="#4D4D4D" stroke-width="2.4" marker-end="url(#a)"/>
<text x="1702" y="1807" dy="0.35em" font-family="Helvetica, Arial, sans-serif" font-size="22" font-weight="normal" fill="#555" text-anchor="start">response (wire)</text>
<path d="M 1780 1665 L 1900 1665 L 1900 1475 L 2020 1475" fill="none" stroke="#4D4D4D" stroke-width="1.4" marker-end="url(#a)"/>
<rect x="1890" y="1532" width="20" height="15" fill="#F2F2F2" stroke="#4D4D4D" stroke-width="1" rx="0"/>
<rect x="1890" y="1547" width="20" height="15" fill="#F2F2F2" stroke="#4D4D4D" stroke-width="1" rx="0"/>
<rect x="1890" y="1562" width="20" height="15" fill="#F2F2F2" stroke="#4D4D4D" stroke-width="1" rx="0"/>
<rect x="1890" y="1578" width="20" height="15" fill="#F2F2F2" stroke="#4D4D4D" stroke-width="1" rx="0"/>
<rect x="1890" y="1593" width="20" height="15" fill="#F2F2F2" stroke="#4D4D4D" stroke-width="1" rx="0"/>
<text x="1920" y="1570" dy="0.35em" font-family="Helvetica, Arial, sans-serif" font-size="22" font-weight="normal" fill="#555" text-anchor="start">response (object)</text>
<path d="M 2210 1475 L 2450 1475" fill="none" stroke="#4D4D4D" stroke-width="1.4" marker-end="url(#a)"/>
<path d="M 2545 1399 L 2545 1285 L 264 1285" fill="none" stroke="#4D4D4D" stroke-width="2.4" marker-end="url(#a)"/>
<text x="1404" y="1268" dy="0.35em" font-family="Helvetica, Arial, sans-serif" font-size="22" font-weight="normal" fill="#555" text-anchor="middle">response (wire)</text>
</svg>
