<svg xmlns="http://www.w3.org/2000/svg" width="2498" height="2440" viewBox="0 0 2498 2440">
<!-- generated by cargo xtask diagrams, do not edit -->
<rect width="100%" height="100%" fill="white"/>
<defs><marker id="a" viewBox="0 0 10 10" refX="9" refY="5" markerWidth="6" markerHeight="6" orient="auto-start-reverse"><path d="M 0 0 L 10 5 L 0 10 z" fill="#4D4D4D"/></marker></defs>
<rect x="24" y="24" width="2190" height="1000" fill="#FAFAFA" stroke="#9E9E9E" stroke-width="2" rx="0"/>
<text x="2344" y="501" dy="0.35em" font-family="Helvetica, Arial, sans-serif" font-size="30" font-weight="bold" fill="#000" text-anchor="middle">launch-time backend fork</text>
<text x="2338" y="549" dy="0.35em" font-family="Helvetica, Arial, sans-serif" font-size="22" font-weight="normal" fill="#555" text-anchor="end">cache servers</text>
<text x="2344" y="549" dy="0.35em" font-family="Helvetica, Arial, sans-serif" font-size="26" font-weight="normal" fill="#555" text-anchor="middle">:</text>
<text x="2352" y="549" dy="0.35em" font-family="Helvetica, Arial, sans-serif" font-size="22" font-weight="normal" fill="#555" text-anchor="start">plain TCP</text>
<rect x="64" y="188" width="290" height="192" fill="#FFFFFF" stroke="#4D4D4D" stroke-width="1.5" rx="10"/>
<text x="209" y="265" dy="0.35em" font-family="SFMono-Regular, Menlo, Consolas, monospace" font-size="26" font-weight="bold" fill="#000" text-anchor="middle">server.io_backend</text>
<text x="209" y="299" dy="0.35em" font-family="Helvetica, Arial, sans-serif" font-size="22" font-weight="normal" fill="#333" font-style="italic" text-anchor="middle">resolved once</text>
<rect x="494" y="79" width="290" height="192" fill="#FFFFFF" stroke="#4D4D4D" stroke-width="1.5" rx="10"/>
<text x="639" y="156" dy="0.35em" font-family="SFMono-Regular, Menlo, Consolas, monospace" font-size="26" font-weight="bold" fill="#000" text-anchor="middle">pelikan_listener</text>
<text x="639" y="190" dy="0.35em" font-family="Helvetica, Arial, sans-serif" font-size="22" font-weight="normal" fill="#333" text-anchor="middle">Mio accept/readiness</text>
<rect x="924" y="164" width="10" height="22" fill="#F2F2F2" stroke="#4D4D4D" stroke-width="1" rx="0"/>
<rect x="934" y="164" width="10" height="22" fill="#F2F2F2" stroke="#4D4D4D" stroke-width="1" rx="0"/>
<rect x="944" y="164" width="10" height="22" fill="#F2F2F2" stroke="#4D4D4D" stroke-width="1" rx="0"/>
<rect x="954" y="164" width="10" height="22" fill="#F2F2F2" stroke="#4D4D4D" stroke-width="1" rx="0"/>
<rect x="964" y="164" width="10" height="22" fill="#F2F2F2" stroke="#4D4D4D" stroke-width="1" rx="0"/>
<text x="949" y="148" dy="0.35em" font-family="Helvetica, Arial, sans-serif" font-size="22" font-weight="normal" fill="#555" text-anchor="middle">session queue</text>
<rect x="1354" y="79" width="290" height="192" fill="#FFFFFF" stroke="#4D4D4D" stroke-width="1.5" rx="10"/>
<text x="1499" y="129" dy="0.35em" font-family="SFMono-Regular, Menlo, Consolas, monospace" font-size="26" font-weight="bold" fill="#000" text-anchor="middle">pelikan_work_i</text>
<text x="1499" y="163" dy="0.35em" font-family="Helvetica, Arial, sans-serif" font-size="22" font-weight="normal" fill="#333" text-anchor="middle">callback state machine</text>
<rect x="1374" y="200" width="250" height="36" fill="#FBB4AE" stroke="#4D4D4D" stroke-width="1" rx="0"/>
<text x="1499" y="218" dy="0.35em" font-family="Helvetica, Arial, sans-serif" font-size="22" font-weight="normal" fill="#000" text-anchor="middle">protocol-*</text>
<rect x="494" y="404" width="290" height="192" fill="#FFFFFF" stroke="#4D4D4D" stroke-width="1.5" rx="10"/>
<text x="639" y="481" dy="0.35em" font-family="SFMono-Regular, Menlo, Consolas, monospace" font-size="26" font-weight="bold" fill="#000" text-anchor="middle">ringline-acceptor</text>
<text x="639" y="515" dy="0.35em" font-family="Helvetica, Arial, sans-serif" font-size="22" font-weight="normal" fill="#333" text-anchor="middle">Ringline accept</text>
<rect x="924" y="489" width="10" height="22" fill="#F2F2F2" stroke="#4D4D4D" stroke-width="1" rx="0"/>
<rect x="934" y="489" width="10" height="22" fill="#F2F2F2" stroke="#4D4D4D" stroke-width="1" rx="0"/>
<rect x="944" y="489" width="10" height="22" fill="#F2F2F2" stroke="#4D4D4D" stroke-width="1" rx="0"/>
<rect x="954" y="489" width="10" height="22" fill="#F2F2F2" stroke="#4D4D4D" stroke-width="1" rx="0"/>
<rect x="964" y="489" width="10" height="22" fill="#F2F2F2" stroke="#4D4D4D" stroke-width="1" rx="0"/>
<text x="949" y="473" dy="0.35em" font-family="Helvetica, Arial, sans-serif" font-size="22" font-weight="normal" fill="#555" text-anchor="middle">accepted fd queue / wake</text>
<rect x="1354" y="404" width="290" height="192" fill="#FFFFFF" stroke="#4D4D4D" stroke-width="1.5" rx="10"/>
<text x="1499" y="454" dy="0.35em" font-family="SFMono-Regular, Menlo, Consolas, monospace" font-size="26" font-weight="bold" fill="#000" text-anchor="middle">ringline-worker-i</text>
<text x="1499" y="488" dy="0.35em" font-family="Helvetica, Arial, sans-serif" font-size="22" font-weight="normal" fill="#333" text-anchor="middle">schedules async tasks</text>
<rect x="1374" y="525" width="250" height="36" fill="#FBB4AE" stroke="#4D4D4D" stroke-width="1" rx="0"/>
<text x="1499" y="543" dy="0.35em" font-family="Helvetica, Arial, sans-serif" font-size="22" font-weight="normal" fill="#000" text-anchor="middle">protocol-*</text>
<rect x="64" y="699" width="290" height="192" fill="#FFFFFF" stroke="#4D4D4D" stroke-width="1.5" rx="10"/>
<text x="209" y="776" dy="0.35em" font-family="SFMono-Regular, Menlo, Consolas, monospace" font-size="26" font-weight="bold" fill="#000" text-anchor="middle">pelikan_signal</text>
<text x="209" y="810" dy="0.35em" font-family="Helvetica, Arial, sans-serif" font-size="22" font-weight="normal" fill="#333" text-anchor="middle">SIGINT/TERM/QUIT</text>
<rect x="494" y="699" width="290" height="192" fill="#FFFFFF" stroke="#4D4D4D" stroke-width="1.5" rx="10"/>
<text x="639" y="749" dy="0.35em" font-family="SFMono-Regular, Menlo, Consolas, monospace" font-size="26" font-weight="bold" fill="#000" text-anchor="middle">pelikan_admin</text>
<text x="639" y="783" dy="0.35em" font-family="Helvetica, Arial, sans-serif" font-size="22" font-weight="normal" fill="#333" text-anchor="middle">:9999 (Mio)</text>
<rect x="514" y="820" width="250" height="36" fill="#FBB4AE" stroke="#4D4D4D" stroke-width="1" rx="0"/>
<text x="639" y="838" dy="0.35em" font-family="Helvetica, Arial, sans-serif" font-size="22" font-weight="normal" fill="#000" text-anchor="middle">protocol-admin</text>
<rect x="924" y="784" width="10" height="22" fill="#F2F2F2" stroke="#4D4D4D" stroke-width="1" rx="0"/>
<rect x="934" y="784" width="10" height="22" fill="#F2F2F2" stroke="#4D4D4D" stroke-width="1" rx="0"/>
<rect x="944" y="784" width="10" height="22" fill="#F2F2F2" stroke="#4D4D4D" stroke-width="1" rx="0"/>
<rect x="954" y="784" width="10" height="22" fill="#F2F2F2" stroke="#4D4D4D" stroke-width="1" rx="0"/>
<rect x="964" y="784" width="10" height="22" fill="#F2F2F2" stroke="#4D4D4D" stroke-width="1" rx="0"/>
<text x="949" y="768" dy="0.35em" font-family="Helvetica, Arial, sans-serif" font-size="22" font-weight="normal" fill="#555" text-anchor="middle">signal queue / wake</text>
<rect x="1354" y="699" width="430" height="192" fill="#FFFFFF" stroke="#4D4D4D" stroke-width="1.5" rx="10"/>
<text x="1569" y="776" dy="0.35em" font-family="SFMono-Regular, Menlo, Consolas, monospace" font-size="26" font-weight="bold" fill="#000" text-anchor="middle">pelikan_ringline_control</text>
<text x="1569" y="810" dy="0.35em" font-family="Helvetica, Arial, sans-serif" font-size="22" font-weight="normal" fill="#333" text-anchor="middle">shutdown + monitor</text>
<rect x="1044" y="324" width="10" height="22" fill="#F2F2F2" stroke="#4D4D4D" stroke-width="1" rx="0"/>
<rect x="1054" y="324" width="10" height="22" fill="#F2F2F2" stroke="#4D4D4D" stroke-width="1" rx="0"/>
<rect x="1064" y="324" width="10" height="22" fill="#F2F2F2" stroke="#4D4D4D" stroke-width="1" rx="0"/>
<rect x="1074" y="324" width="10" height="22" fill="#F2F2F2" stroke="#4D4D4D" stroke-width="1" rx="0"/>
<rect x="1084" y="324" width="10" height="22" fill="#F2F2F2" stroke="#4D4D4D" stroke-width="1" rx="0"/>
<text x="1069" y="308" dy="0.35em" font-family="Helvetica, Arial, sans-serif" font-size="22" font-weight="normal" fill="#555" text-anchor="middle">Mio broadcast queue / wake</text>
<path d="M 354 284 L 454 284 L 454 175 L 494 175" fill="none" stroke="#4D4D4D" stroke-width="1.4" marker-end="url(#a)"/>
<text x="424" y="157" dy="0.35em" font-family="Helvetica, Arial, sans-serif" font-size="22" font-weight="normal" fill="#555" text-anchor="middle">mio (default)</text>
<path d="M 354 284 L 454 284 L 454 500 L 494 500" fill="none" stroke="#4D4D4D" stroke-width="1.4" marker-end="url(#a)"/>
<text x="424" y="518" dy="0.35em" font-family="Helvetica, Arial, sans-serif" font-size="22" font-weight="normal" fill="#555" text-anchor="middle">ringline (Linux)</text>
<path d="M 784 175 L 924 175" fill="none" stroke="#4D4D4D" stroke-width="1.4" marker-end="url(#a)"/>
<path d="M 974 175 L 1354 175" fill="none" stroke="#4D4D4D" stroke-width="1.4" marker-end="url(#a)"/>
<path d="M 784 500 L 924 500" fill="none" stroke="#4D4D4D" stroke-width="1.4" marker-end="url(#a)"/>
<path d="M 974 500 L 1354 500" fill="none" stroke="#4D4D4D" stroke-width="1.4" marker-end="url(#a)"/>
<path d="M 354 795 L 494 795" fill="none" stroke="#999999" stroke-width="1.4" stroke-dasharray="5,4" marker-end="url(#a)"/>
<text x="424" y="777" dy="0.35em" font-family="Helvetica, Arial, sans-serif" font-size="22" font-weight="normal" fill="#777" text-anchor="middle">OS signals</text>
<path d="M 639 699 L 639 659 L 1069 659 L 1069 346" fill="none" stroke="#999999" stroke-width="1.4" stroke-dasharray="5,4" marker-end="url(#a)"/>
<path d="M 1044 335 L 639 335 L 639 271" fill="none" stroke="#999999" stroke-width="1.4" stroke-dasharray="5,4" marker-end="url(#a)"/>
<path d="M 1094 335 L 1499 335 L 1499 271" fill="none" stroke="#999999" stroke-width="1.4" stroke-dasharray="5,4" marker-end="url(#a)"/>
<path d="M 784 795 L 924 795" fill="none" stroke="#999999" stroke-width="1.4" stroke-dasharray="5,4" marker-end="url(#a)"/>
<path d="M 974 795 L 1354 795" fill="none" stroke="#999999" stroke-width="1.4" stroke-dasharray="5,4" marker-end="url(#a)"/>
<path d="M 1569 891 L 1569 919 L 639 919 L 639 891" fill="none" stroke="#999999" stroke-width="1.4" stroke-dasharray="5,4" marker-end="url(#a)"/>
<text x="1104" y="937" dy="0.35em" font-family="Helvetica, Arial, sans-serif" font-size="22" font-weight="normal" fill="#777" text-anchor="middle">runtime termination report</text>
<rect x="24" y="1044" width="2190" height="560" fill="#FAFAFA" stroke="#9E9E9E" stroke-width="2" rx="0"/>
<text x="2344" y="1267" dy="0.35em" font-family="Helvetica, Arial, sans-serif" font-size="30" font-weight="bold" fill="#000" text-anchor="middle">common Arc-shared storage</text>
<text x="2338" y="1315" dy="0.35em" font-family="Helvetica, Arial, sans-serif" font-size="22" font-weight="normal" fill="#555" text-anchor="end">segcache</text>
<text x="2344" y="1315" dy="0.35em" font-family="Helvetica, Arial, sans-serif" font-size="26" font-weight="normal" fill="#555" text-anchor="middle">:</text>
<text x="2352" y="1315" dy="0.35em" font-family="Helvetica, Arial, sans-serif" font-size="22" font-weight="normal" fill="#555" text-anchor="start">memcache</text>
<text x="2338" y="1349" dy="0.35em" font-family="Helvetica, Arial, sans-serif" font-size="22" font-weight="normal" fill="#555" text-anchor="end">rds</text>
<text x="2344" y="1349" dy="0.35em" font-family="Helvetica, Arial, sans-serif" font-size="26" font-weight="normal" fill="#555" text-anchor="middle">:</text>
<text x="2352" y="1349" dy="0.35em" font-family="Helvetica, Arial, sans-serif" font-size="22" font-weight="normal" fill="#555" text-anchor="start">resp</text>
<text x="2338" y="1383" dy="0.35em" font-family="Helvetica, Arial, sans-serif" font-size="22" font-weight="normal" fill="#555" text-anchor="end">pingserver</text>
<text x="2344" y="1383" dy="0.35em" font-family="Helvetica, Arial, sans-serif" font-size="26" font-weight="normal" fill="#555" text-anchor="middle">:</text>
<text x="2352" y="1383" dy="0.35em" font-family="Helvetica, Arial, sans-serif" font-size="22" font-weight="normal" fill="#555" text-anchor="start">ping</text>
<rect x="144" y="1089" width="390" height="192" fill="#FFFFFF" stroke="#4D4D4D" stroke-width="1.5" rx="10"/>
<text x="339" y="1139" dy="0.35em" font-family="SFMono-Regular, Menlo, Consolas, monospace" font-size="26" font-weight="bold" fill="#000" text-anchor="middle">execution context 0</text>
<text x="339" y="1173" dy="0.35em" font-family="Helvetica, Arial, sans-serif" font-size="22" font-weight="normal" fill="#333" text-anchor="middle">Mio callback / Ringline task</text>
<rect x="164" y="1210" width="350" height="36" fill="#FBB4AE" stroke="#4D4D4D" stroke-width="1" rx="0"/>
<text x="339" y="1228" dy="0.35em" font-family="Helvetica, Arial, sans-serif" font-size="22" font-weight="normal" fill="#000" text-anchor="middle">protocol-*</text>
<rect x="144" y="1367" width="390" height="192" fill="#FFFFFF" stroke="#4D4D4D" stroke-width="1.5" rx="10"/>
<text x="339" y="1417" dy="0.35em" font-family="SFMono-Regular, Menlo, Consolas, monospace" font-size="26" font-weight="bold" fill="#000" text-anchor="middle">execution context n-1</text>
<text x="339" y="1451" dy="0.35em" font-family="Helvetica, Arial, sans-serif" font-size="22" font-weight="normal" fill="#333" text-anchor="middle">Mio callback / Ringline task</text>
<rect x="164" y="1488" width="350" height="36" fill="#FBB4AE" stroke="#4D4D4D" stroke-width="1" rx="0"/>
<text x="339" y="1506" dy="0.35em" font-family="Helvetica, Arial, sans-serif" font-size="22" font-weight="normal" fill="#000" text-anchor="middle">protocol-*</text>
<circle cx="339" cy="1316" r="2" fill="#777"/>
<circle cx="339" cy="1324" r="2" fill="#777"/>
<circle cx="339" cy="1332" r="2" fill="#777"/>
<rect x="864" y="1228" width="390" height="192" fill="#FFFFFF" stroke="#4D4D4D" stroke-width="1.5" rx="10"/>
<text x="1059" y="1257" dy="0.35em" font-family="SFMono-Regular, Menlo, Consolas, monospace" font-size="26" font-weight="bold" fill="#000" text-anchor="middle">one Arc-shared engine</text>
<text x="1059" y="1291" dy="0.35em" font-family="Helvetica, Arial, sans-serif" font-size="22" font-weight="normal" fill="#333" text-anchor="middle">process-owned; not a thread</text>
<rect x="884" y="1328" width="350" height="36" fill="#B3CDE3" stroke="#4D4D4D" stroke-width="1" rx="0"/>
<text x="1059" y="1346" dy="0.35em" font-family="Helvetica, Arial, sans-serif" font-size="22" font-weight="normal" fill="#000" text-anchor="middle">entrystore</text>
<rect x="884" y="1370" width="350" height="36" fill="#B3CDE3" stroke="#4D4D4D" stroke-width="1" rx="0"/>
<text x="1059" y="1388" dy="0.35em" font-family="Helvetica, Arial, sans-serif" font-size="22" font-weight="normal" fill="#000" text-anchor="middle">segcache</text>
<path d="M 534 1185 L 684 1185 L 684 1282 L 864 1282" fill="none" stroke="#4D4D4D" stroke-width="1.4" marker-end="url(#a)" marker-start="url(#a)"/>
<path d="M 534 1463 L 684 1463 L 684 1366 L 864 1366" fill="none" stroke="#4D4D4D" stroke-width="1.4" marker-end="url(#a)" marker-start="url(#a)"/>
<text x="699" y="1324" dy="0.35em" font-family="Helvetica, Arial, sans-serif" font-size="22" font-weight="normal" fill="#555" text-anchor="middle">direct execute / response</text>
<rect x="1584" y="1228" width="390" height="192" fill="#FFFFFF" stroke="#4D4D4D" stroke-width="1.5" rx="10"/>
<text x="1779" y="1278" dy="0.35em" font-family="SFMono-Regular, Menlo, Consolas, monospace" font-size="26" font-weight="bold" fill="#000" text-anchor="middle">pelikan_admin</text>
<text x="1779" y="1312" dy="0.35em" font-family="Helvetica, Arial, sans-serif" font-size="22" font-weight="normal" fill="#333" text-anchor="middle">FlushHandle clones same Arc</text>
<rect x="1604" y="1349" width="350" height="36" fill="#FBB4AE" stroke="#4D4D4D" stroke-width="1" rx="0"/>
<text x="1779" y="1367" dy="0.35em" font-family="Helvetica, Arial, sans-serif" font-size="22" font-weight="normal" fill="#000" text-anchor="middle">protocol-admin</text>
<path d="M 1584 1324 L 1254 1324" fill="none" stroke="#999999" stroke-width="1.4" stroke-dasharray="5,4" marker-end="url(#a)"/>
<text x="1419" y="1306" dy="0.35em" font-family="Helvetica, Arial, sans-serif" font-size="22" font-weight="normal" fill="#777" text-anchor="middle">synchronous clear</text>
<rect x="24" y="1624" width="2190" height="792" fill="#FAFAFA" stroke="#9E9E9E" stroke-width="2" rx="0"/>
<text x="2344" y="1997" dy="0.35em" font-family="Helvetica, Arial, sans-serif" font-size="30" font-weight="bold" fill="#000" text-anchor="middle">proxy</text>
<text x="2338" y="2045" dy="0.35em" font-family="Helvetica, Arial, sans-serif" font-size="22" font-weight="normal" fill="#555" text-anchor="end">pingproxy</text>
<text x="2344" y="2045" dy="0.35em" font-family="Helvetica, Arial, sans-serif" font-size="26" font-weight="normal" fill="#555" text-anchor="middle">:</text>
<text x="2352" y="2045" dy="0.35em" font-family="Helvetica, Arial, sans-serif" font-size="22" font-weight="normal" fill="#555" text-anchor="start">ping</text>
<rect x="50" y="1766" width="124" height="68" fill="#FFFFFF" stroke="#4D4D4D" stroke-width="1.5" rx="0" stroke-dasharray="6,4"/>
<text x="112" y="1800" dy="0.35em" font-family="Helvetica, Arial, sans-serif" font-size="26" font-weight="normal" fill="#000" font-style="italic" text-anchor="middle">clients</text>
<rect x="380" y="1704" width="290" height="192" fill="#FFFFFF" stroke="#4D4D4D" stroke-width="1.5" rx="10"/>
<text x="525" y="1781" dy="0.35em" font-family="SFMono-Regular, Menlo, Consolas, monospace" font-size="26" font-weight="bold" fill="#000" text-anchor="middle">pelikan_listener</text>
<text x="525" y="1815" dy="0.35em" font-family="Helvetica, Arial, sans-serif" font-size="22" font-weight="normal" fill="#333" text-anchor="middle">:12321</text>
<path d="M 174 1800 L 380 1800" fill="none" stroke="#4D4D4D" stroke-width="2.4" marker-end="url(#a)"/>
<text x="277" y="1785" dy="0.35em" font-family="Helvetica, Arial, sans-serif" font-size="22" font-weight="normal" fill="#555" text-anchor="middle">accept</text>
<rect x="816" y="1789" width="10" height="22" fill="#F2F2F2" stroke="#4D4D4D" stroke-width="1" rx="0"/>
<rect x="826" y="1789" width="10" height="22" fill="#F2F2F2" stroke="#4D4D4D" stroke-width="1" rx="0"/>
<rect x="836" y="1789" width="10" height="22" fill="#F2F2F2" stroke="#4D4D4D" stroke-width="1" rx="0"/>
<rect x="846" y="1789" width="10" height="22" fill="#F2F2F2" stroke="#4D4D4D" stroke-width="1" rx="0"/>
<rect x="856" y="1789" width="10" height="22" fill="#F2F2F2" stroke="#4D4D4D" stroke-width="1" rx="0"/>
<text x="841" y="1773" dy="0.35em" font-family="Helvetica, Arial, sans-serif" font-size="22" font-weight="normal" fill="#555" text-anchor="middle">sessions</text>
<path d="M 670 1800 L 816 1800" fill="none" stroke="#4D4D4D" stroke-width="1.4" marker-end="url(#a)"/>
<rect x="1012" y="1704" width="290" height="192" fill="#FFFFFF" stroke="#4D4D4D" stroke-width="1.5" rx="10"/>
<text x="1157" y="1773" dy="0.35em" font-family="SFMono-Regular, Menlo, Consolas, monospace" font-size="26" font-weight="bold" fill="#000" text-anchor="middle">pelikan_fe_0</text>
<rect x="1032" y="1806" width="250" height="36" fill="#FBB4AE" stroke="#4D4D4D" stroke-width="1" rx="0"/>
<text x="1157" y="1824" dy="0.35em" font-family="Helvetica, Arial, sans-serif" font-size="22" font-weight="normal" fill="#000" text-anchor="middle">protocol-*</text>
<rect x="1012" y="1936" width="290" height="192" fill="#FFFFFF" stroke="#4D4D4D" stroke-width="1.5" rx="10"/>
<text x="1157" y="2005" dy="0.35em" font-family="SFMono-Regular, Menlo, Consolas, monospace" font-size="26" font-weight="bold" fill="#000" text-anchor="middle">pelikan_fe_n-1</text>
<rect x="1032" y="2038" width="250" height="36" fill="#FBB4AE" stroke="#4D4D4D" stroke-width="1" rx="0"/>
<text x="1157" y="2056" dy="0.35em" font-family="Helvetica, Arial, sans-serif" font-size="22" font-weight="normal" fill="#000" text-anchor="middle">protocol-*</text>
<circle cx="1157" cy="1908" r="2" fill="#777"/>
<circle cx="1157" cy="1916" r="2" fill="#777"/>
<circle cx="1157" cy="1924" r="2" fill="#777"/>
<path d="M 866 1800 L 992 1800 L 992 1800 L 1012 1800" fill="none" stroke="#4D4D4D" stroke-width="1.4" marker-end="url(#a)"/>
<path d="M 866 1800 L 992 1800 L 992 2032 L 1012 2032" fill="none" stroke="#4D4D4D" stroke-width="1.4" marker-end="url(#a)"/>
<path d="M 112 1766 L 112 1664 L 1157 1664 L 1157 1704" fill="none" stroke="#4D4D4D" stroke-width="2.4" marker-end="url(#a)" marker-start="url(#a)"/>
<text x="676" y="1649" dy="0.35em" font-family="Helvetica, Arial, sans-serif" font-size="22" font-weight="normal" fill="#555" text-anchor="middle">requests / responses (wire)</text>
<rect x="1448" y="1907" width="10" height="18" fill="#F2F2F2" stroke="#4D4D4D" stroke-width="1" rx="0"/>
<rect x="1458" y="1907" width="10" height="18" fill="#F2F2F2" stroke="#4D4D4D" stroke-width="1" rx="0"/>
<rect x="1468" y="1907" width="10" height="18" fill="#F2F2F2" stroke="#4D4D4D" stroke-width="1" rx="0"/>
<rect x="1478" y="1907" width="10" height="18" fill="#F2F2F2" stroke="#4D4D4D" stroke-width="1" rx="0"/>
<rect x="1488" y="1907" width="10" height="18" fill="#F2F2F2" stroke="#4D4D4D" stroke-width="1" rx="0"/>
<text x="1473" y="1865" dy="0.35em" font-family="Helvetica, Arial, sans-serif" font-size="22" font-weight="normal" fill="#555" text-anchor="middle">requests / responses</text>
<text x="1473" y="1891" dy="0.35em" font-family="Helvetica, Arial, sans-serif" font-size="22" font-weight="normal" fill="#555" text-anchor="middle">(object)</text>
<path d="M 1302 1800 L 1318 1800 L 1318 1916 L 1448 1916" fill="none" stroke="#4D4D4D" stroke-width="1.4" marker-end="url(#a)" marker-start="url(#a)"/>
<path d="M 1302 2032 L 1318 2032 L 1318 1916 L 1448 1916" fill="none" stroke="#4D4D4D" stroke-width="1.4" marker-end="url(#a)" marker-start="url(#a)"/>
<rect x="1644" y="1704" width="290" height="192" fill="#FFFFFF" stroke="#4D4D4D" stroke-width="1.5" rx="10"/>
<text x="1789" y="1773" dy="0.35em" font-family="SFMono-Regular, Menlo, Consolas, monospace" font-size="26" font-weight="bold" fill="#000" text-anchor="middle">pelikan_be_0</text>
<rect x="1664" y="1806" width="250" height="36" fill="#FBB4AE" stroke="#4D4D4D" stroke-width="1" rx="0"/>
<text x="1789" y="1824" dy="0.35em" font-family="Helvetica, Arial, sans-serif" font-size="22" font-weight="normal" fill="#000" text-anchor="middle">protocol-*</text>
<rect x="1644" y="1936" width="290" height="192" fill="#FFFFFF" stroke="#4D4D4D" stroke-width="1.5" rx="10"/>
<text x="1789" y="2005" dy="0.35em" font-family="SFMono-Regular, Menlo, Consolas, monospace" font-size="26" font-weight="bold" fill="#000" text-anchor="middle">pelikan_be_n-1</text>
<rect x="1664" y="2038" width="250" height="36" fill="#FBB4AE" stroke="#4D4D4D" stroke-width="1" rx="0"/>
<text x="1789" y="2056" dy="0.35em" font-family="Helvetica, Arial, sans-serif" font-size="22" font-weight="normal" fill="#000" text-anchor="middle">protocol-*</text>
<circle cx="1789" cy="1908" r="2" fill="#777"/>
<circle cx="1789" cy="1916" r="2" fill="#777"/>
<circle cx="1789" cy="1924" r="2" fill="#777"/>
<path d="M 1498 1916 L 1628 1916 L 1628 1800 L 1644 1800" fill="none" stroke="#4D4D4D" stroke-width="1.4" marker-end="url(#a)" marker-start="url(#a)"/>
<path d="M 1498 1916 L 1628 1916 L 1628 2032 L 1644 2032" fill="none" stroke="#4D4D4D" stroke-width="1.4" marker-end="url(#a)" marker-start="url(#a)"/>
<rect x="2045" y="1766" width="124" height="68" fill="#FFFFFF" stroke="#4D4D4D" stroke-width="1.5" rx="0" stroke-dasharray="6,4"/>
<text x="2107" y="1800" dy="0.35em" font-family="Helvetica, Arial, sans-serif" font-size="26" font-weight="normal" fill="#000" font-style="italic" text-anchor="middle">servers</text>
<path d="M 1934 1800 L 2045 1800" fill="none" stroke="#4D4D4D" stroke-width="2.4" marker-end="url(#a)" marker-start="url(#a)"/>
<text x="1989" y="1785" dy="0.35em" font-family="Helvetica, Arial, sans-serif" font-size="22" font-weight="normal" fill="#555" text-anchor="middle">connect</text>
<rect x="50" y="2204" width="290" height="192" fill="#FFFFFF" stroke="#4D4D4D" stroke-width="1.5" rx="10"/>
<text x="195" y="2281" dy="0.35em" font-family="SFMono-Regular, Menlo, Consolas, monospace" font-size="26" font-weight="bold" fill="#000" text-anchor="middle">pelikan_signal</text>
<text x="195" y="2315" dy="0.35em" font-family="Helvetica, Arial, sans-serif" font-size="22" font-weight="normal" fill="#333" font-style="italic" text-anchor="middle">SIGINT/TERM/QUIT</text>
<rect x="380" y="2204" width="290" height="192" fill="#FFFFFF" stroke="#4D4D4D" stroke-width="1.5" rx="10"/>
<text x="525" y="2254" dy="0.35em" font-family="SFMono-Regular, Menlo, Consolas, monospace" font-size="26" font-weight="bold" fill="#000" text-anchor="middle">pelikan_admin</text>
<text x="525" y="2288" dy="0.35em" font-family="Helvetica, Arial, sans-serif" font-size="22" font-weight="normal" fill="#333" text-anchor="middle">:9999</text>
<rect x="400" y="2325" width="250" height="36" fill="#FBB4AE" stroke="#4D4D4D" stroke-width="1" rx="0"/>
<text x="525" y="2343" dy="0.35em" font-family="Helvetica, Arial, sans-serif" font-size="22" font-weight="normal" fill="#000" text-anchor="middle">protocol-admin</text>
<path d="M 340 2300 L 380 2300" fill="none" stroke="#999999" stroke-width="1.4" stroke-dasharray="5,4" marker-end="url(#a)"/>
<path d="M 428 2204 L 428 1896" fill="none" stroke="#999999" stroke-width="1.4" stroke-dasharray="5,4" marker-end="url(#a)"/>
<text x="396" y="2050" dy="0.35em" font-family="Helvetica, Arial, sans-serif" font-size="22" font-weight="normal" fill="#777" text-anchor="middle">signals</text>
<path d="M 670 2300 L 1157 2300 L 1157 2128" fill="none" stroke="#999999" stroke-width="1.4" stroke-dasharray="5,4" marker-end="url(#a)"/>
<path d="M 670 2300 L 1789 2300 L 1789 2128" fill="none" stroke="#999999" stroke-width="1.4" stroke-dasharray="5,4" marker-end="url(#a)"/>
</svg>
