<svg xmlns="http://www.w3.org/2000/svg" width="2498" height="2290" viewBox="0 0 2498 2290">
<!-- generated by cargo xtask diagrams, do not edit -->
<rect width="100%" height="100%" fill="white"/>
<defs><marker id="a" viewBox="0 0 10 10" refX="9" refY="5" markerWidth="6" markerHeight="6" orient="auto-start-reverse"><path d="M 0 0 L 10 5 L 0 10 z" fill="#4D4D4D"/></marker></defs>
<rect x="24" y="24" width="2190" height="850" fill="#FAFAFA" stroke="#9E9E9E" stroke-width="2" rx="0"/>
<text x="2344" y="426" dy="0.35em" font-family="Helvetica, Arial, sans-serif" font-size="30" font-weight="bold" fill="#000" text-anchor="middle">launch-time backend fork</text>
<text x="2338" y="474" dy="0.35em" font-family="Helvetica, Arial, sans-serif" font-size="22" font-weight="normal" fill="#555" text-anchor="end">cache servers</text>
<text x="2344" y="474" dy="0.35em" font-family="Helvetica, Arial, sans-serif" font-size="26" font-weight="normal" fill="#555" text-anchor="middle">:</text>
<text x="2352" y="474" dy="0.35em" font-family="Helvetica, Arial, sans-serif" font-size="22" font-weight="normal" fill="#555" text-anchor="start">plain TCP</text>
<rect x="64" y="188" width="290" height="192" fill="#FFFFFF" stroke="#4D4D4D" stroke-width="1.5" rx="10"/>
<text x="209" y="265" dy="0.35em" font-family="SFMono-Regular, Menlo, Consolas, monospace" font-size="26" font-weight="bold" fill="#000" text-anchor="middle">server.io_backend</text>
<text x="209" y="299" dy="0.35em" font-family="Helvetica, Arial, sans-serif" font-size="22" font-weight="normal" fill="#333" font-style="italic" text-anchor="middle">resolved once</text>
<rect x="494" y="79" width="290" height="192" fill="#FFFFFF" stroke="#4D4D4D" stroke-width="1.5" rx="10"/>
<text x="639" y="156" dy="0.35em" font-family="SFMono-Regular, Menlo, Consolas, monospace" font-size="26" font-weight="bold" fill="#000" text-anchor="middle">pelikan_listener</text>
<text x="639" y="190" dy="0.35em" font-family="Helvetica, Arial, sans-serif" font-size="22" font-weight="normal" fill="#333" text-anchor="middle">Mio accept/readiness</text>
<rect x="924" y="164" width="10" height="22" fill="#F2F2F2" stroke="#4D4D4D" stroke-width="1" rx="0"/>
<rect x="934" y="164" width="10" height="22" fill="#F2F2F2" stroke="#4D4D4D" stroke-width="1" rx="0"/>
<rect x="944" y="164" width="10" height="22" fill="#F2F2F2" stroke="#4D4D4D" stroke-width="1" rx="0"/>
<rect x="954" y="164" width="10" height="22" fill="#F2F2F2" stroke="#4D4D4D" stroke-width="1" rx="0"/>
<rect x="964" y="164" width="10" height="22" fill="#F2F2F2" stroke="#4D4D4D" stroke-width="1" rx="0"/>
<text x="949" y="148" dy="0.35em" font-family="Helvetica, Arial, sans-serif" font-size="22" font-weight="normal" fill="#555" text-anchor="middle">session queue</text>
<rect x="1354" y="79" width="290" height="192" fill="#FFFFFF" stroke="#4D4D4D" stroke-width="1.5" rx="10"/>
<text x="1499" y="129" dy="0.35em" font-family="SFMono-Regular, Menlo, Consolas, monospace" font-size="26" font-weight="bold" fill="#000" text-anchor="middle">pelikan_work_i</text>
<text x="1499" y="163" dy="0.35em" font-family="Helvetica, Arial, sans-serif" font-size="22" font-weight="normal" fill="#333" text-anchor="middle">callback state machine</text>
<rect x="1374" y="200" width="250" height="36" fill="#FBB4AE" stroke="#4D4D4D" stroke-width="1" rx="0"/>
<text x="1499" y="218" dy="0.35em" font-family="Helvetica, Arial, sans-serif" font-size="22" font-weight="normal" fill="#000" text-anchor="middle">protocol-*</text>
<rect x="494" y="304" width="290" height="192" fill="#FFFFFF" stroke="#4D4D4D" stroke-width="1.5" rx="10"/>
<text x="639" y="381" dy="0.35em" font-family="SFMono-Regular, Menlo, Consolas, monospace" font-size="26" font-weight="bold" fill="#000" text-anchor="middle">ringline-acceptor</text>
<text x="639" y="415" dy="0.35em" font-family="Helvetica, Arial, sans-serif" font-size="22" font-weight="normal" fill="#333" text-anchor="middle">Ringline accept</text>
<rect x="924" y="389" width="10" height="22" fill="#F2F2F2" stroke="#4D4D4D" stroke-width="1" rx="0"/>
<rect x="934" y="389" width="10" height="22" fill="#F2F2F2" stroke="#4D4D4D" stroke-width="1" rx="0"/>
<rect x="944" y="389" width="10" height="22" fill="#F2F2F2" stroke="#4D4D4D" stroke-width="1" rx="0"/>
<rect x="954" y="389" width="10" height="22" fill="#F2F2F2" stroke="#4D4D4D" stroke-width="1" rx="0"/>
<rect x="964" y="389" width="10" height="22" fill="#F2F2F2" stroke="#4D4D4D" stroke-width="1" rx="0"/>
<text x="949" y="373" dy="0.35em" font-family="Helvetica, Arial, sans-serif" font-size="22" font-weight="normal" fill="#555" text-anchor="middle">accepted fd queue / wake</text>
<rect x="1354" y="304" width="290" height="192" fill="#FFFFFF" stroke="#4D4D4D" stroke-width="1.5" rx="10"/>
<text x="1499" y="354" dy="0.35em" font-family="SFMono-Regular, Menlo, Consolas, monospace" font-size="26" font-weight="bold" fill="#000" text-anchor="middle">ringline-worker-i</text>
<text x="1499" y="388" dy="0.35em" font-family="Helvetica, Arial, sans-serif" font-size="22" font-weight="normal" fill="#333" text-anchor="middle">schedules async tasks</text>
<rect x="1374" y="425" width="250" height="36" fill="#FBB4AE" stroke="#4D4D4D" stroke-width="1" rx="0"/>
<text x="1499" y="443" dy="0.35em" font-family="Helvetica, Arial, sans-serif" font-size="22" font-weight="normal" fill="#000" text-anchor="middle">protocol-*</text>
<rect x="494" y="599" width="290" height="192" fill="#FFFFFF" stroke="#4D4D4D" stroke-width="1.5" rx="10"/>
<text x="639" y="649" dy="0.35em" font-family="SFMono-Regular, Menlo, Consolas, monospace" font-size="26" font-weight="bold" fill="#000" text-anchor="middle">pelikan_admin</text>
<text x="639" y="683" dy="0.35em" font-family="Helvetica, Arial, sans-serif" font-size="22" font-weight="normal" fill="#333" text-anchor="middle">:9999 (Mio)</text>
<rect x="514" y="720" width="250" height="36" fill="#FBB4AE" stroke="#4D4D4D" stroke-width="1" rx="0"/>
<text x="639" y="738" dy="0.35em" font-family="Helvetica, Arial, sans-serif" font-size="22" font-weight="normal" fill="#000" text-anchor="middle">protocol-admin</text>
<rect x="924" y="684" width="10" height="22" fill="#F2F2F2" stroke="#4D4D4D" stroke-width="1" rx="0"/>
<rect x="934" y="684" width="10" height="22" fill="#F2F2F2" stroke="#4D4D4D" stroke-width="1" rx="0"/>
<rect x="944" y="684" width="10" height="22" fill="#F2F2F2" stroke="#4D4D4D" stroke-width="1" rx="0"/>
<rect x="954" y="684" width="10" height="22" fill="#F2F2F2" stroke="#4D4D4D" stroke-width="1" rx="0"/>
<rect x="964" y="684" width="10" height="22" fill="#F2F2F2" stroke="#4D4D4D" stroke-width="1" rx="0"/>
<text x="949" y="668" dy="0.35em" font-family="Helvetica, Arial, sans-serif" font-size="22" font-weight="normal" fill="#555" text-anchor="middle">signal queue / wake</text>
<rect x="1354" y="599" width="430" height="192" fill="#FFFFFF" stroke="#4D4D4D" stroke-width="1.5" rx="10"/>
<text x="1569" y="676" dy="0.35em" font-family="SFMono-Regular, Menlo, Consolas, monospace" font-size="26" font-weight="bold" fill="#000" text-anchor="middle">pelikan_ringline_control</text>
<text x="1569" y="710" dy="0.35em" font-family="Helvetica, Arial, sans-serif" font-size="22" font-weight="normal" fill="#333" text-anchor="middle">shutdown + monitor</text>
<path d="M 354 284 L 454 284 L 454 175 L 494 175" fill="none" stroke="#4D4D4D" stroke-width="1.4" marker-end="url(#a)"/>
<text x="424" y="157" dy="0.35em" font-family="Helvetica, Arial, sans-serif" font-size="22" font-weight="normal" fill="#555" text-anchor="middle">mio (default)</text>
<path d="M 354 284 L 454 284 L 454 400 L 494 400" fill="none" stroke="#4D4D4D" stroke-width="1.4" marker-end="url(#a)"/>
<text x="424" y="418" dy="0.35em" font-family="Helvetica, Arial, sans-serif" font-size="22" font-weight="normal" fill="#555" text-anchor="middle">ringline (Linux)</text>
<path d="M 784 175 L 924 175" fill="none" stroke="#4D4D4D" stroke-width="1.4" marker-end="url(#a)"/>
<path d="M 974 175 L 1354 175" fill="none" stroke="#4D4D4D" stroke-width="1.4" marker-end="url(#a)"/>
<path d="M 784 400 L 924 400" fill="none" stroke="#4D4D4D" stroke-width="1.4" marker-end="url(#a)"/>
<path d="M 974 400 L 1354 400" fill="none" stroke="#4D4D4D" stroke-width="1.4" marker-end="url(#a)"/>
<path d="M 784 695 L 924 695" fill="none" stroke="#999999" stroke-width="1.4" stroke-dasharray="5,4" marker-end="url(#a)"/>
<path d="M 974 695 L 1354 695" fill="none" stroke="#999999" stroke-width="1.4" stroke-dasharray="5,4" marker-end="url(#a)"/>
<path d="M 1569 791 L 1569 819 L 639 819 L 639 791" fill="none" stroke="#999999" stroke-width="1.4" stroke-dasharray="5,4" marker-end="url(#a)"/>
<text x="1104" y="837" dy="0.35em" font-family="Helvetica, Arial, sans-serif" font-size="22" font-weight="normal" fill="#777" text-anchor="middle">runtime termination report</text>
<rect x="24" y="894" width="2190" height="560" fill="#FAFAFA" stroke="#9E9E9E" stroke-width="2" rx="0"/>
<text x="2344" y="1117" dy="0.35em" font-family="Helvetica, Arial, sans-serif" font-size="30" font-weight="bold" fill="#000" text-anchor="middle">common Arc-shared storage</text>
<text x="2338" y="1165" dy="0.35em" font-family="Helvetica, Arial, sans-serif" font-size="22" font-weight="normal" fill="#555" text-anchor="end">segcache</text>
<text x="2344" y="1165" dy="0.35em" font-family="Helvetica, Arial, sans-serif" font-size="26" font-weight="normal" fill="#555" text-anchor="middle">:</text>
<text x="2352" y="1165" dy="0.35em" font-family="Helvetica, Arial, sans-serif" font-size="22" font-weight="normal" fill="#555" text-anchor="start">memcache</text>
<text x="2338" y="1199" dy="0.35em" font-family="Helvetica, Arial, sans-serif" font-size="22" font-weight="normal" fill="#555" text-anchor="end">rds</text>
<text x="2344" y="1199" dy="0.35em" font-family="Helvetica, Arial, sans-serif" font-size="26" font-weight="normal" fill="#555" text-anchor="middle">:</text>
<text x="2352" y="1199" dy="0.35em" font-family="Helvetica, Arial, sans-serif" font-size="22" font-weight="normal" fill="#555" text-anchor="start">resp</text>
<text x="2338" y="1233" dy="0.35em" font-family="Helvetica, Arial, sans-serif" font-size="22" font-weight="normal" fill="#555" text-anchor="end">pingserver</text>
<text x="2344" y="1233" dy="0.35em" font-family="Helvetica, Arial, sans-serif" font-size="26" font-weight="normal" fill="#555" text-anchor="middle">:</text>
<text x="2352" y="1233" dy="0.35em" font-family="Helvetica, Arial, sans-serif" font-size="22" font-weight="normal" fill="#555" text-anchor="start">ping</text>
<rect x="144" y="939" width="390" height="192" fill="#FFFFFF" stroke="#4D4D4D" stroke-width="1.5" rx="10"/>
<text x="339" y="989" dy="0.35em" font-family="SFMono-Regular, Menlo, Consolas, monospace" font-size="26" font-weight="bold" fill="#000" text-anchor="middle">execution context 0</text>
<text x="339" y="1023" dy="0.35em" font-family="Helvetica, Arial, sans-serif" font-size="22" font-weight="normal" fill="#333" text-anchor="middle">Mio callback / Ringline task</text>
<rect x="164" y="1060" width="350" height="36" fill="#FBB4AE" stroke="#4D4D4D" stroke-width="1" rx="0"/>
<text x="339" y="1078" dy="0.35em" font-family="Helvetica, Arial, sans-serif" font-size="22" font-weight="normal" fill="#000" text-anchor="middle">protocol-*</text>
<rect x="144" y="1217" width="390" height="192" fill="#FFFFFF" stroke="#4D4D4D" stroke-width="1.5" rx="10"/>
<text x="339" y="1267" dy="0.35em" font-family="SFMono-Regular, Menlo, Consolas, monospace" font-size="26" font-weight="bold" fill="#000" text-anchor="middle">execution context n-1</text>
<text x="339" y="1301" dy="0.35em" font-family="Helvetica, Arial, sans-serif" font-size="22" font-weight="normal" fill="#333" text-anchor="middle">Mio callback / Ringline task</text>
<rect x="164" y="1338" width="350" height="36" fill="#FBB4AE" stroke="#4D4D4D" stroke-width="1" rx="0"/>
<text x="339" y="1356" dy="0.35em" font-family="Helvetica, Arial, sans-serif" font-size="22" font-weight="normal" fill="#000" text-anchor="middle">protocol-*</text>
<circle cx="339" cy="1166" r="2" fill="#777"/>
<circle cx="339" cy="1174" r="2" fill="#777"/>
<circle cx="339" cy="1182" r="2" fill="#777"/>
<rect x="864" y="1078" width="390" height="192" fill="#FFFFFF" stroke="#4D4D4D" stroke-width="1.5" rx="10"/>
<text x="1059" y="1107" dy="0.35em" font-family="SFMono-Regular, Menlo, Consolas, monospace" font-size="26" font-weight="bold" fill="#000" text-anchor="middle">one Arc-shared engine</text>
<text x="1059" y="1141" dy="0.35em" font-family="Helvetica, Arial, sans-serif" font-size="22" font-weight="normal" fill="#333" text-anchor="middle">process-owned; not a thread</text>
<rect x="884" y="1178" width="350" height="36" fill="#B3CDE3" stroke="#4D4D4D" stroke-width="1" rx="0"/>
<text x="1059" y="1196" dy="0.35em" font-family="Helvetica, Arial, sans-serif" font-size="22" font-weight="normal" fill="#000" text-anchor="middle">entrystore</text>
<rect x="884" y="1220" width="350" height="36" fill="#B3CDE3" stroke="#4D4D4D" stroke-width="1" rx="0"/>
<text x="1059" y="1238" dy="0.35em" font-family="Helvetica, Arial, sans-serif" font-size="22" font-weight="normal" fill="#000" text-anchor="middle">segcache</text>
<path d="M 534 1035 L 684 1035 L 684 1132 L 864 1132" fill="none" stroke="#4D4D4D" stroke-width="1.4" marker-end="url(#a)" marker-start="url(#a)"/>
<path d="M 534 1313 L 684 1313 L 684 1216 L 864 1216" fill="none" stroke="#4D4D4D" stroke-width="1.4" marker-end="url(#a)" marker-start="url(#a)"/>
<text x="699" y="1174" dy="0.35em" font-family="Helvetica, Arial, sans-serif" font-size="22" font-weight="normal" fill="#555" text-anchor="middle">direct execute / response</text>
<rect x="1584" y="1078" width="390" height="192" fill="#FFFFFF" stroke="#4D4D4D" stroke-width="1.5" rx="10"/>
<text x="1779" y="1128" dy="0.35em" font-family="SFMono-Regular, Menlo, Consolas, monospace" font-size="26" font-weight="bold" fill="#000" text-anchor="middle">pelikan_admin</text>
<text x="1779" y="1162" dy="0.35em" font-family="Helvetica, Arial, sans-serif" font-size="22" font-weight="normal" fill="#333" text-anchor="middle">FlushHandle clones same Arc</text>
<rect x="1604" y="1199" width="350" height="36" fill="#FBB4AE" stroke="#4D4D4D" stroke-width="1" rx="0"/>
<text x="1779" y="1217" dy="0.35em" font-family="Helvetica, Arial, sans-serif" font-size="22" font-weight="normal" fill="#000" text-anchor="middle">protocol-admin</text>
<path d="M 1584 1174 L 1254 1174" fill="none" stroke="#999999" stroke-width="1.4" stroke-dasharray="5,4" marker-end="url(#a)"/>
<text x="1419" y="1156" dy="0.35em" font-family="Helvetica, Arial, sans-serif" font-size="22" font-weight="normal" fill="#777" text-anchor="middle">synchronous clear</text>
<rect x="24" y="1474" width="2190" height="792" fill="#FAFAFA" stroke="#9E9E9E" stroke-width="2" rx="0"/>
<text x="2344" y="1847" dy="0.35em" font-family="Helvetica, Arial, sans-serif" font-size="30" font-weight="bold" fill="#000" text-anchor="middle">proxy</text>
<text x="2338" y="1895" dy="0.35em" font-family="Helvetica, Arial, sans-serif" font-size="22" font-weight="normal" fill="#555" text-anchor="end">pingproxy</text>
<text x="2344" y="1895" dy="0.35em" font-family="Helvetica, Arial, sans-serif" font-size="26" font-weight="normal" fill="#555" text-anchor="middle">:</text>
<text x="2352" y="1895" dy="0.35em" font-family="Helvetica, Arial, sans-serif" font-size="22" font-weight="normal" fill="#555" text-anchor="start">ping</text>
<rect x="50" y="1616" width="124" height="68" fill="#FFFFFF" stroke="#4D4D4D" stroke-width="1.5" rx="0" stroke-dasharray="6,4"/>
<text x="112" y="1650" dy="0.35em" font-family="Helvetica, Arial, sans-serif" font-size="26" font-weight="normal" fill="#000" font-style="italic" text-anchor="middle">clients</text>
<rect x="380" y="1554" width="290" height="192" fill="#FFFFFF" stroke="#4D4D4D" stroke-width="1.5" rx="10"/>
<text x="525" y="1631" dy="0.35em" font-family="SFMono-Regular, Menlo, Consolas, monospace" font-size="26" font-weight="bold" fill="#000" text-anchor="middle">pelikan_listener</text>
<text x="525" y="1665" dy="0.35em" font-family="Helvetica, Arial, sans-serif" font-size="22" font-weight="normal" fill="#333" text-anchor="middle">:12321</text>
<path d="M 174 1650 L 380 1650" fill="none" stroke="#4D4D4D" stroke-width="2.4" marker-end="url(#a)"/>
<text x="277" y="1635" dy="0.35em" font-family="Helvetica, Arial, sans-serif" font-size="22" font-weight="normal" fill="#555" text-anchor="middle">accept</text>
<rect x="816" y="1639" width="10" height="22" fill="#F2F2F2" stroke="#4D4D4D" stroke-width="1" rx="0"/>
<rect x="826" y="1639" width="10" height="22" fill="#F2F2F2" stroke="#4D4D4D" stroke-width="1" rx="0"/>
<rect x="836" y="1639" width="10" height="22" fill="#F2F2F2" stroke="#4D4D4D" stroke-width="1" rx="0"/>
<rect x="846" y="1639" width="10" height="22" fill="#F2F2F2" stroke="#4D4D4D" stroke-width="1" rx="0"/>
<rect x="856" y="1639" width="10" height="22" fill="#F2F2F2" stroke="#4D4D4D" stroke-width="1" rx="0"/>
<text x="841" y="1623" dy="0.35em" font-family="Helvetica, Arial, sans-serif" font-size="22" font-weight="normal" fill="#555" text-anchor="middle">sessions</text>
<path d="M 670 1650 L 816 1650" fill="none" stroke="#4D4D4D" stroke-width="1.4" marker-end="url(#a)"/>
<rect x="1012" y="1554" width="290" height="192" fill="#FFFFFF" stroke="#4D4D4D" stroke-width="1.5" rx="10"/>
<text x="1157" y="1623" dy="0.35em" font-family="SFMono-Regular, Menlo, Consolas, monospace" font-size="26" font-weight="bold" fill="#000" text-anchor="middle">pelikan_fe_0</text>
<rect x="1032" y="1656" width="250" height="36" fill="#FBB4AE" stroke="#4D4D4D" stroke-width="1" rx="0"/>
<text x="1157" y="1674" dy="0.35em" font-family="Helvetica, Arial, sans-serif" font-size="22" font-weight="normal" fill="#000" text-anchor="middle">protocol-*</text>
<rect x="1012" y="1786" width="290" height="192" fill="#FFFFFF" stroke="#4D4D4D" stroke-width="1.5" rx="10"/>
<text x="1157" y="1855" dy="0.35em" font-family="SFMono-Regular, Menlo, Consolas, monospace" font-size="26" font-weight="bold" fill="#000" text-anchor="middle">pelikan_fe_n-1</text>
<rect x="1032" y="1888" width="250" height="36" fill="#FBB4AE" stroke="#4D4D4D" stroke-width="1" rx="0"/>
<text x="1157" y="1906" dy="0.35em" font-family="Helvetica, Arial, sans-serif" font-size="22" font-weight="normal" fill="#000" text-anchor="middle">protocol-*</text>
<circle cx="1157" cy="1758" r="2" fill="#777"/>
<circle cx="1157" cy="1766" r="2" fill="#777"/>
<circle cx="1157" cy="1774" r="2" fill="#777"/>
<path d="M 866 1650 L 992 1650 L 992 1650 L 1012 1650" fill="none" stroke="#4D4D4D" stroke-width="1.4" marker-end="url(#a)"/>
<path d="M 866 1650 L 992 1650 L 992 1882 L 1012 1882" fill="none" stroke="#4D4D4D" stroke-width="1.4" marker-end="url(#a)"/>
<path d="M 112 1616 L 112 1514 L 1157 1514 L 1157 1554" fill="none" stroke="#4D4D4D" stroke-width="2.4" marker-end="url(#a)" marker-start="url(#a)"/>
<text x="676" y="1499" dy="0.35em" font-family="Helvetica, Arial, sans-serif" font-size="22" font-weight="normal" fill="#555" text-anchor="middle">requests / responses (wire)</text>
<rect x="1448" y="1757" width="10" height="18" fill="#F2F2F2" stroke="#4D4D4D" stroke-width="1" rx="0"/>
<rect x="1458" y="1757" width="10" height="18" fill="#F2F2F2" stroke="#4D4D4D" stroke-width="1" rx="0"/>
<rect x="1468" y="1757" width="10" height="18" fill="#F2F2F2" stroke="#4D4D4D" stroke-width="1" rx="0"/>
<rect x="1478" y="1757" width="10" height="18" fill="#F2F2F2" stroke="#4D4D4D" stroke-width="1" rx="0"/>
<rect x="1488" y="1757" width="10" height="18" fill="#F2F2F2" stroke="#4D4D4D" stroke-width="1" rx="0"/>
<text x="1473" y="1715" dy="0.35em" font-family="Helvetica, Arial, sans-serif" font-size="22" font-weight="normal" fill="#555" text-anchor="middle">requests / responses</text>
<text x="1473" y="1741" dy="0.35em" font-family="Helvetica, Arial, sans-serif" font-size="22" font-weight="normal" fill="#555" text-anchor="middle">(object)</text>
<path d="M 1302 1650 L 1318 1650 L 1318 1766 L 1448 1766" fill="none" stroke="#4D4D4D" stroke-width="1.4" marker-end="url(#a)" marker-start="url(#a)"/>
<path d="M 1302 1882 L 1318 1882 L 1318 1766 L 1448 1766" fill="none" stroke="#4D4D4D" stroke-width="1.4" marker-end="url(#a)" marker-start="url(#a)"/>
<rect x="1644" y="1554" width="290" height="192" fill="#FFFFFF" stroke="#4D4D4D" stroke-width="1.5" rx="10"/>
<text x="1789" y="1623" dy="0.35em" font-family="SFMono-Regular, Menlo, Consolas, monospace" font-size="26" font-weight="bold" fill="#000" text-anchor="middle">pelikan_be_0</text>
<rect x="1664" y="1656" width="250" height="36" fill="#FBB4AE" stroke="#4D4D4D" stroke-width="1" rx="0"/>
<text x="1789" y="1674" dy="0.35em" font-family="Helvetica, Arial, sans-serif" font-size="22" font-weight="normal" fill="#000" text-anchor="middle">protocol-*</text>
<rect x="1644" y="1786" width="290" height="192" fill="#FFFFFF" stroke="#4D4D4D" stroke-width="1.5" rx="10"/>
<text x="1789" y="1855" dy="0.35em" font-family="SFMono-Regular, Menlo, Consolas, monospace" font-size="26" font-weight="bold" fill="#000" text-anchor="middle">pelikan_be_n-1</text>
<rect x="1664" y="1888" width="250" height="36" fill="#FBB4AE" stroke="#4D4D4D" stroke-width="1" rx="0"/>
<text x="1789" y="1906" dy="0.35em" font-family="Helvetica, Arial, sans-serif" font-size="22" font-weight="normal" fill="#000" text-anchor="middle">protocol-*</text>
<circle cx="1789" cy="1758" r="2" fill="#777"/>
<circle cx="1789" cy="1766" r="2" fill="#777"/>
<circle cx="1789" cy="1774" r="2" fill="#777"/>
<path d="M 1498 1766 L 1628 1766 L 1628 1650 L 1644 1650" fill="none" stroke="#4D4D4D" stroke-width="1.4" marker-end="url(#a)" marker-start="url(#a)"/>
<path d="M 1498 1766 L 1628 1766 L 1628 1882 L 1644 1882" fill="none" stroke="#4D4D4D" stroke-width="1.4" marker-end="url(#a)" marker-start="url(#a)"/>
<rect x="2045" y="1616" width="124" height="68" fill="#FFFFFF" stroke="#4D4D4D" stroke-width="1.5" rx="0" stroke-dasharray="6,4"/>
<text x="2107" y="1650" dy="0.35em" font-family="Helvetica, Arial, sans-serif" font-size="26" font-weight="normal" fill="#000" font-style="italic" text-anchor="middle">servers</text>
<path d="M 1934 1650 L 2045 1650" fill="none" stroke="#4D4D4D" stroke-width="2.4" marker-end="url(#a)" marker-start="url(#a)"/>
<text x="1989" y="1635" dy="0.35em" font-family="Helvetica, Arial, sans-serif" font-size="22" font-weight="normal" fill="#555" text-anchor="middle">connect</text>
<rect x="50" y="2054" width="290" height="192" fill="#FFFFFF" stroke="#4D4D4D" stroke-width="1.5" rx="10"/>
<text x="195" y="2131" dy="0.35em" font-family="SFMono-Regular, Menlo, Consolas, monospace" font-size="26" font-weight="bold" fill="#000" text-anchor="middle">pelikan_signal</text>
<text x="195" y="2165" dy="0.35em" font-family="Helvetica, Arial, sans-serif" font-size="22" font-weight="normal" fill="#333" font-style="italic" text-anchor="middle">SIGINT/TERM/QUIT</text>
<rect x="380" y="2054" width="290" height="192" fill="#FFFFFF" stroke="#4D4D4D" stroke-width="1.5" rx="10"/>
<text x="525" y="2104" dy="0.35em" font-family="SFMono-Regular, Menlo, Consolas, monospace" font-size="26" font-weight="bold" fill="#000" text-anchor="middle">pelikan_admin</text>
<text x="525" y="2138" dy="0.35em" font-family="Helvetica, Arial, sans-serif" font-size="22" font-weight="normal" fill="#333" text-anchor="middle">:9999</text>
<rect x="400" y="2175" width="250" height="36" fill="#FBB4AE" stroke="#4D4D4D" stroke-width="1" rx="0"/>
<text x="525" y="2193" dy="0.35em" font-family="Helvetica, Arial, sans-serif" font-size="22" font-weight="normal" fill="#000" text-anchor="middle">protocol-admin</text>
<path d="M 340 2150 L 380 2150" fill="none" stroke="#999999" stroke-width="1.4" stroke-dasharray="5,4" marker-end="url(#a)"/>
<path d="M 428 2054 L 428 1746" fill="none" stroke="#999999" stroke-width="1.4" stroke-dasharray="5,4" marker-end="url(#a)"/>
<text x="396" y="1900" dy="0.35em" font-family="Helvetica, Arial, sans-serif" font-size="22" font-weight="normal" fill="#777" text-anchor="middle">signals</text>
<path d="M 670 2150 L 1157 2150 L 1157 1978" fill="none" stroke="#999999" stroke-width="1.4" stroke-dasharray="5,4" marker-end="url(#a)"/>
<path d="M 670 2150 L 1789 2150 L 1789 1978" fill="none" stroke="#999999" stroke-width="1.4" stroke-dasharray="5,4" marker-end="url(#a)"/>
</svg>
